<?xml version="1.0" standalone="yes"?>
<svg xmlns="http://www.w3.org/2000/svg" width="868" height="133">
<path style="fill:#010101; stroke:none;" d="M0 0L0 133L868 133L868 0L0 0z"/>
<path style="fill:#ffffff; stroke:none;" d="M397 67L371 68C371.301 103.856 434.404 111.867 446.881 80C455.146 58.8913 438.396 46.0335 420 41.3742C414.956 40.0968 403.376 39.6552 400.478 34.7778C396.974 28.8821 405.536 25.7195 410 26.2045C416.962 26.9607 419.154 32.1343 421 38L446 35C445.096 28.8816 442.679 20.6835 437.831 16.49C421.932 2.73897 380.78 6.29268 374.764 29C369.528 48.7639 388.14 57.2871 404 61.3704C409.591 62.8098 418.704 63.7879 421.622 69.6188C424.994 76.3584 416.189 81.3878 410.576 81.0957C401.7 80.6338 398.278 75.0497 397 67M4 11L4 98C23.8521 98 55.1407 103.646 72.9992 93.4668C90.2421 83.6389 86.5387 56.3233 67 53C70.4995 49.449 75.0631 47.5665 77.5826 42.9961C83.6956 31.9071 78.0055 16.5947 66 12.5988C48.0447 6.62252 22.8217 11 4 11M97 11L97 98L121 98L121 11L97 11M294 11L294 98L318 98C318 86.1502 319.409 81.592 328 73C330.497 79.6864 333.539 92.7146 339.637 96.9722C345.027 100.735 359.528 98 366 98L350.201 69L344.727 57.4244L366 35C358.01 35 342.405 31.9881 335.425 36.0278C328.134 40.248 323.658 49.9579 318 56L319 11L294 11M466 35L457 35L457 53L466 52C466 62.9765 461.646 86.1694 470.533 94.3511C479.044 102.186 493.967 98.2691 504 97L503 80C499.883 80.4022 495.138 82.2261 492.318 80.2261C486.969 76.4331 490 58.0053 490 52L503 52L504 35L490 35L490 11C476.334 14.9368 466 20.362 466 35M675 11L675 98L699 98L699 11L675 11z"/>
<path style="fill:#a3a3a3; stroke:none;" d="M318 16L318 56L319 56C319 44.566 322.411 26.512 318 16M76 20L77 21L76 20M440 20L441 21L440 20z"/>
<path style="fill:#606060; stroke:none;" d="M441 21L442 22L441 21z"/>
<path style="fill:#a3a3a3; stroke:none;" d="M77 22L78 23L77 22z"/>
<path style="fill:#2e2e2e; stroke:none;" d="M442 22L443 23L442 22M78 23L79 24L78 23z"/>
<path style="fill:#a3a3a3; stroke:none;" d="M442 23L443 24L442 23M78 24L79 25L78 24z"/>
<path style="fill:#2e2e2e; stroke:none;" d="M443 24L444 25L443 24z"/>
<path style="fill:#a3a3a3; stroke:none;" d="M443 25L444 26L443 25z"/>
<path style="fill:#606060; stroke:none;" d="M79 26L80 27L79 26z"/>
<path style="fill:#a3a3a3; stroke:none;" d="M404 26L405 27L404 26z"/>
<path style="fill:#606060; stroke:none;" d="M405 26L406 27L405 26z"/>
<path style="fill:#2e2e2e; stroke:none;" d="M406 26L407 27L406 26M409.667 26.3333L410.333 26.6667L409.667 26.3333z"/>
<path style="fill:#606060; stroke:none;" d="M411 26L412 27L411 26z"/>
<path style="fill:#a3a3a3; stroke:none;" d="M412 26L413 27L412 26M79 27L80 28L79 27z"/>
<path style="fill:#2e2e2e; stroke:none;" d="M402 27L403 28L402 27M414 27L415 28L414 27z"/>
<path style="fill:#a3a3a3; stroke:none;" d="M415 27L416 28L415 27z"/>
<path style="fill:#606060; stroke:none;" d="M444 27L445 28L444 27z"/>
<path style="fill:#a3a3a3; stroke:none;" d="M400 28L401 29L400 28z"/>
<path style="fill:#606060; stroke:none;" d="M416 28L417 29L416 28z"/>
<path style="fill:#a3a3a3; stroke:none;" d="M444 28L445 29L444 28M31 29C31 34.8281 28.6101 44.7667 36 46L36 45L32 45L31 29z"/>
<path style="fill:#010101; stroke:none;" d="M32 29L32 45C37.405 45 45.0064 46.34 49.8665 43.5432C54.7733 40.7196 54.6464 33.9008 49.8912 30.9884C44.9433 27.958 37.5339 29 32 29z"/>
<path style="fill:#2e2e2e; stroke:none;" d="M45.6667 29.3333L46.3333 29.6667L45.6667 29.3333z"/>
<path style="fill:#606060; stroke:none;" d="M47 29L48 30L47 29z"/>
<path style="fill:#a3a3a3; stroke:none;" d="M48 29L49 30L48 29z"/>
<path style="fill:#2e2e2e; stroke:none;" d="M417 29L418 30L417 29z"/>
<path style="fill:#606060; stroke:none;" d="M50 30L51 31L50 30z"/>
<path style="fill:#2e2e2e; stroke:none;" d="M80.3333 30.6667L80.6667 31.3333L80.3333 30.6667z"/>
<path style="fill:#606060; stroke:none;" d="M399 30L400 31L399 30M418 30L419 31L418 30M445 30L446 31L445 30z"/>
<path style="fill:#2e2e2e; stroke:none;" d="M51 31L52 32L51 31M399 31L400 32L399 31z"/>
<path style="fill:#a3a3a3; stroke:none;" d="M419 31L420 32L419 31M445 31L446 32L445 31z"/>
<path style="fill:#2e2e2e; stroke:none;" d="M52 32L53 33L52 32z"/>
<path style="fill:#606060; stroke:none;" d="M80 32L80 35L81 35L80 32z"/>
<path style="fill:#a3a3a3; stroke:none;" d="M53 33L54 34L53 33z"/>
<path style="fill:#ffffff; stroke:none;" d="M135 54C141.358 53.7797 149.822 56.0055 155.83 54.6427C162.424 53.1471 176.774 39.8889 178 56C166.77 57.6584 143.239 60.6191 136.109 70.1852C128.386 80.5462 134.507 93.9138 146 97.3804C158.001 101 170.591 97.9987 180 90L182 98L204 97C200.357 81.0617 208.439 51.7391 195.725 39.3904C190.936 34.7391 184.192 34.4757 178 33.7153C161.96 31.7454 136.104 32.7222 135 54M286 75C279.306 74.7126 270.628 71.5506 264.104 73.3187C257.069 75.2252 256.117 83.4796 247 81.6551C235.269 79.3075 234.192 61.7456 241.343 54.2137C248.074 47.1256 258.648 49.8183 261 59L284 55C281.911 49.7002 279.46 43.2048 274.931 39.5177C260.162 27.4927 229.768 30.9749 218.557 46.0008C212.969 53.4902 212.205 63.9821 213.174 73C217.063 109.203 276.206 105.949 286 75M513 54C519.358 53.7797 527.822 56.0055 533.83 54.6427C540.424 53.1471 554.775 39.8889 556 56C544.77 57.6585 521.239 60.6191 514.109 70.1852C506.386 80.5462 512.507 93.9138 524 97.3804C536.001 101 548.591 97.9987 558 90L560 98L582 97C578.357 81.0616 586.439 51.7393 573.725 39.3904C568.936 34.7391 562.191 34.4757 556 33.7153C539.96 31.7454 514.104 32.7222 513 54M782 81C775.344 79.7643 766.731 78.1467 760 79.1474C748.304 80.8861 739.943 88.8794 735 72L783 72C783 60.9361 781.518 47.1236 771.946 39.7894C752.708 25.0498 715.621 33.2772 711.326 59C709.599 69.3424 711.162 82.2526 719.105 89.7901C735.308 105.166 772.236 102.313 782 81z"/>
<path style="fill:#606060; stroke:none;" d="M399 34L400 35L399 34z"/>
<path style="fill:#2e2e2e; stroke:none;" d="M446.333 34.6667L446.667 35.3333L446.333 34.6667z"/>
<path style="fill:#ffffff; stroke:none;" d="M616 45L617 35L594 35L594 98L618 98C618 86.7228 615.862 72.9738 618.533 62C619.735 57.0632 624.302 51.6167 629.981 53.6188C634.769 55.3071 635.196 60.6793 635.714 65C637.007 75.7637 636 87.1627 636 98L660 98C660 77.1637 668.518 33.8634 638 34.0008C634.541 34.0163 631.255 34.1815 628.001 35.4792C622.87 37.5252 620.106 41.6492 616 45z"/>
<path style="fill:#2e2e2e; stroke:none;" d="M80 35L81 36L80 35M400 35L401 36L400 35z"/>
<path style="fill:#a3a3a3; stroke:none;" d="M444.667 35.3333L445.333 35.6667L444.667 35.3333z"/>
<path style="fill:#ffffff; stroke:none;" d="M787 35C791.303 50.7321 799.452 65.9005 805.603 81C807.446 85.5219 812.797 93.4286 811.612 98.4236C809.18 108.673 797.03 105.45 790 104L792 122C802.784 122.001 815.173 125.249 824.985 119.005C832.941 113.943 835.469 103.306 838.576 95C845.991 75.1708 854.744 55.1641 861 35L836 35L825 76L816.026 47L812.4 36.0278L787 35z"/>
<path style="fill:#2e2e2e; stroke:none;" d="M401 36L402 37L401 36z"/>
<path style="fill:#a3a3a3; stroke:none;" d="M427 36L427 37L433 37L427 36z"/>
<path style="fill:#606060; stroke:none;" d="M433 36L433 37L436 37L433 36z"/>
<path style="fill:#2e2e2e; stroke:none;" d="M436 36L436 37L439 37L436 36z"/>
<path style="fill:#a3a3a3; stroke:none;" d="M402 37L403 38L402 37M79 38L80 39L79 38z"/>
<path style="fill:#606060; stroke:none;" d="M79 39L80 40L79 39z"/>
<path style="fill:#a3a3a3; stroke:none;" d="M361 39L362 40L361 39z"/>
<path style="fill:#2e2e2e; stroke:none;" d="M503 39L503 52L504 52L503 39z"/>
<path style="fill:#a3a3a3; stroke:none;" d="M616 39L618 45L616 39z"/>
<path style="fill:#2e2e2e; stroke:none;" d="M859 39L860 40L859 39z"/>
<path style="fill:#a3a3a3; stroke:none;" d="M360 40L361 41L360 40z"/>
<path style="fill:#2e2e2e; stroke:none;" d="M620 40L621 41L620 40M814 40L815 41L814 40z"/>
<path style="fill:#a3a3a3; stroke:none;" d="M858 40L859 41L858 40M78 41L79 42L78 41M359 41L360 42L359 41M814 41L815 42L814 41z"/>
<path style="fill:#606060; stroke:none;" d="M858 41L859 42L858 41z"/>
<path style="fill:#2e2e2e; stroke:none;" d="M78 42L79 43L78 42z"/>
<path style="fill:#a3a3a3; stroke:none;" d="M358 42L359 43L358 42z"/>
<path style="fill:#606060; stroke:none;" d="M656 42L657 43L656 42z"/>
<path style="fill:#a3a3a3; stroke:none;" d="M77 43L78 44L77 43z"/>
<path style="fill:#606060; stroke:none;" d="M198 43L199 44L198 43z"/>
<path style="fill:#a3a3a3; stroke:none;" d="M357 43L358 44L357 43z"/>
<path style="fill:#606060; stroke:none;" d="M576 43L577 44L576 43z"/>
<path style="fill:#a3a3a3; stroke:none;" d="M618 43L619 44L618 43z"/>
<path style="fill:#2e2e2e; stroke:none;" d="M815 43L816 44L815 43z"/>
<path style="fill:#a3a3a3; stroke:none;" d="M857 43L858 44L857 43M278 44L279 45L278 44M356 44L357 45L356 44M657 44L658 45L657 44M776.333 44.6667L776.667 45.3333L776.333 44.6667z"/>
<path style="fill:#606060; stroke:none;" d="M815 44L816 45L815 44M857 44L858 45L857 44z"/>
<path style="fill:#2e2e2e; stroke:none;" d="M76 45L77 46L76 45z"/>
<path style="fill:#606060; stroke:none;" d="M199 45L200 46L199 45z"/>
<path style="fill:#a3a3a3; stroke:none;" d="M279 45L280 46L279 45M355 45L356 46L355 45z"/>
<path style="fill:#606060; stroke:none;" d="M577 45L578 46L577 45z"/>
<path style="fill:#a3a3a3; stroke:none;" d="M815 45L816 46L815 45z"/>
<path style="fill:#606060; stroke:none;" d="M75 46L76 47L75 46z"/>
<path style="fill:#2e2e2e; stroke:none;" d="M280 46L281 47L280 46z"/>
<path style="fill:#a3a3a3; stroke:none;" d="M354 46L355 47L354 46z"/>
<path style="fill:#606060; stroke:none;" d="M658 46L659 47L658 46z"/>
<path style="fill:#a3a3a3; stroke:none;" d="M777 46L778 47L777 46M856 46L857 47L856 46z"/>
<path style="fill:#606060; stroke:none;" d="M74 47L75 48L74 47z"/>
<path style="fill:#2e2e2e; stroke:none;" d="M200 47L201 48L200 47z"/>
<path style="fill:#a3a3a3; stroke:none;" d="M280 47L281 48L280 47M353 47L354 48L353 47z"/>
<path style="fill:#2e2e2e; stroke:none;" d="M578 47L579 48L578 47z"/>
<path style="fill:#a3a3a3; stroke:none;" d="M658 47L659 48L658 47z"/>
<path style="fill:#2e2e2e; stroke:none;" d="M778 47L779 48L778 47z"/>
<path style="fill:#606060; stroke:none;" d="M816 47L817 48L816 47z"/>
<path style="fill:#2e2e2e; stroke:none;" d="M856 47L857 48L856 47z"/>
<path style="fill:#606060; stroke:none;" d="M73 48L74 49L73 48z"/>
<path style="fill:#a3a3a3; stroke:none;" d="M164.667 48.3333L165.333 48.6667L164.667 48.3333z"/>
<path style="fill:#606060; stroke:none;" d="M166 48L167 49L166 48z"/>
<path style="fill:#2e2e2e; stroke:none;" d="M167.667 48.3333L168.333 48.6667L167.667 48.3333M172 48L173 49L172 48z"/>
<path style="fill:#606060; stroke:none;" d="M173 48L174 49L173 48z"/>
<path style="fill:#a3a3a3; stroke:none;" d="M174 48L175 49L174 48M200 48L201 49L200 48z"/>
<path style="fill:#606060; stroke:none;" d="M281 48L282 49L281 48z"/>
<path style="fill:#a3a3a3; stroke:none;" d="M352 48L353 49L352 48M542.667 48.3333L543.333 48.6667L542.667 48.3333z"/>
<path style="fill:#606060; stroke:none;" d="M544 48L545 49L544 48z"/>
<path style="fill:#2e2e2e; stroke:none;" d="M545.667 48.3333L546.333 48.6667L545.667 48.3333M550 48L551 49L550 48z"/>
<path style="fill:#606060; stroke:none;" d="M551 48L552 49L551 48z"/>
<path style="fill:#a3a3a3; stroke:none;" d="M552 48L553 49L552 48M578 48L579 49L578 48M743 48L744 49L743 48z"/>
<path style="fill:#606060; stroke:none;" d="M744 48L745 49L744 48z"/>
<path style="fill:#2e2e2e; stroke:none;" d="M745 48L746 49L745 48z"/>
<path style="fill:#010101; stroke:none;" d="M736 60L758 60C756.409 44.5687 739.284 46.3389 736 60z"/>
<path style="fill:#2e2e2e; stroke:none;" d="M748.667 48.3333L749.333 48.6667L748.667 48.3333z"/>
<path style="fill:#606060; stroke:none;" d="M750 48L751 49L750 48z"/>
<path style="fill:#a3a3a3; stroke:none;" d="M751 48L752 49L751 48M778 48L779 49L778 48M816 48L817 49L816 48M855 48L856 49L855 48M71 49L72 50L71 49z"/>
<path style="fill:#2e2e2e; stroke:none;" d="M72 49L73 50L72 49z"/>
<path style="fill:#a3a3a3; stroke:none;" d="M162 49L163 50L162 49M176 49L177 50L176 49z"/>
<path style="fill:#606060; stroke:none;" d="M351 49L352 50L351 49z"/>
<path style="fill:#a3a3a3; stroke:none;" d="M540 49L541 50L540 49M554 49L555 50L554 49z"/>
<path style="fill:#2e2e2e; stroke:none;" d="M659 49L660 50L659 49z"/>
<path style="fill:#a3a3a3; stroke:none;" d="M741 49L742 50L741 49z"/>
<path style="fill:#2e2e2e; stroke:none;" d="M752 49L753 50L752 49z"/>
<path style="fill:#a3a3a3; stroke:none;" d="M753 49L754 50L753 49z"/>
<path style="fill:#606060; stroke:none;" d="M779 49L780 50L779 49M855 49L856 50L855 49z"/>
<path style="fill:#a3a3a3; stroke:none;" d="M69 50L70 51L69 50z"/>
<path style="fill:#2e2e2e; stroke:none;" d="M70 50L71 51L70 50M161 50L162 51L161 50z"/>
<path style="fill:#a3a3a3; stroke:none;" d="M177 50L178 51L177 50z"/>
<path style="fill:#2e2e2e; stroke:none;" d="M201 50L202 51L201 50z"/>
<path style="fill:#a3a3a3; stroke:none;" d="M246 50L247 51L246 50z"/>
<path style="fill:#606060; stroke:none;" d="M247 50L248 51L247 50z"/>
<path style="fill:#2e2e2e; stroke:none;" d="M248 50L249 51L248 50M251.667 50.3333L252.333 50.6667L251.667 50.3333z"/>
<path style="fill:#606060; stroke:none;" d="M253 50L254 51L253 50z"/>
<path style="fill:#a3a3a3; stroke:none;" d="M254 50L255 51L254 50z"/>
<path style="fill:#606060; stroke:none;" d="M282 50L283 51L282 50M350 50L351 51L350 50z"/>
<path style="fill:#2e2e2e; stroke:none;" d="M539 50L540 51L539 50z"/>
<path style="fill:#a3a3a3; stroke:none;" d="M555 50L556 51L555 50z"/>
<path style="fill:#2e2e2e; stroke:none;" d="M579 50L580 51L579 50z"/>
<path style="fill:#606060; stroke:none;" d="M659 50L660 51L659 50M740 50L741 51L740 50M754 50L755 51L754 50z"/>
<path style="fill:#a3a3a3; stroke:none;" d="M779 50L780 51L779 50z"/>
<path style="fill:#606060; stroke:none;" d="M817 50L818 51L817 50z"/>
<path style="fill:#a3a3a3; stroke:none;" d="M67.3333 51.6667L67.6667 52.3333L67.3333 51.6667z"/>
<path style="fill:#2e2e2e; stroke:none;" d="M68 51L69 52L68 51M160 51L161 52L160 51M177 51L178 52L177 51z"/>
<path style="fill:#606060; stroke:none;" d="M201 51L202 52L201 51M244 51L245 52L244 51M256 51L257 52L256 51z"/>
<path style="fill:#a3a3a3; stroke:none;" d="M282 51L283 52L282 51M322 51L323 52L322 51z"/>
<path style="fill:#606060; stroke:none;" d="M349 51L350 52L349 51z"/>
<path style="fill:#2e2e2e; stroke:none;" d="M538 51L539 52L538 51M555 51L556 52L555 51z"/>
<path style="fill:#606060; stroke:none;" d="M579 51L580 52L579 51z"/>
<path style="fill:#a3a3a3; stroke:none;" d="M659.333 51.6667L659.667 52.3333L659.333 51.6667z"/>
<path style="fill:#2e2e2e; stroke:none;" d="M739 51L740 52L739 51z"/>
<path style="fill:#606060; stroke:none;" d="M755 51L756 52L755 51z"/>
<path style="fill:#2e2e2e; stroke:none;" d="M780 51L781 52L780 51z"/>
<path style="fill:#a3a3a3; stroke:none;" d="M817 51L818 52L817 51M854 51L855 52L854 51z"/>
<path style="fill:#606060; stroke:none;" d="M68 52L69 53L68 52M159 52L160 53L159 52z"/>
<path style="fill:#a3a3a3; stroke:none;" d="M201.333 52.6667L201.667 53.3333L201.333 52.6667M242 52L243 53L242 52M258 52L259 53L258 52z"/>
<path style="fill:#2e2e2e; stroke:none;" d="M283 52L284 53L283 52z"/>
<path style="fill:#606060; stroke:none;" d="M321 52L322 53L321 52M348 52L349 53L348 52z"/>
<path style="fill:#a3a3a3; stroke:none;" d="M382 52L383 53L382 52M461 52L461 53L466 53L461 52M490 52L490 53L503 53L490 52z"/>
<path style="fill:#606060; stroke:none;" d="M537 52L538 53L537 52z"/>
<path style="fill:#a3a3a3; stroke:none;" d="M579.333 52.6667L579.667 53.3333L579.333 52.6667z"/>
<path style="fill:#606060; stroke:none;" d="M738 52L739 53L738 52z"/>
<path style="fill:#a3a3a3; stroke:none;" d="M756 52L757 53L756 52M780 52L781 53L780 52z"/>
<path style="fill:#606060; stroke:none;" d="M854 52L855 53L854 52z"/>
<path style="fill:#a3a3a3; stroke:none;" d="M70 53L71 54L70 53z"/>
<path style="fill:#2e2e2e; stroke:none;" d="M71 53L72 54L71 53z"/>
<path style="fill:#a3a3a3; stroke:none;" d="M140 53L140 54L143 54L140 53M158 53L159 54L158 53M241 53L242 54L241 53M259 53L260 54L259 53M283 53L284 54L283 53z"/>
<path style="fill:#2e2e2e; stroke:none;" d="M320 53L321 54L320 53z"/>
<path style="fill:#606060; stroke:none;" d="M347 53L348 54L347 53M383 53L384 54L383 53z"/>
<path style="fill:#a3a3a3; stroke:none;" d="M384 53L385 54L384 53M518 53L518 54L521 54L518 53M536 53L537 54L536 53M624 53L625 54L624 53z"/>
<path style="fill:#2e2e2e; stroke:none;" d="M625 53L626 54L625 53z"/>
<path style="fill:#606060; stroke:none;" d="M630 53L631 54L630 53z"/>
<path style="fill:#a3a3a3; stroke:none;" d="M631 53L632 54L631 53M737 53L738 54L737 53z"/>
<path style="fill:#2e2e2e; stroke:none;" d="M756 53L757 54L756 53M818 53L819 54L818 53z"/>
<path style="fill:#a3a3a3; stroke:none;" d="M72 54L73 55L72 54z"/>
<path style="fill:#606060; stroke:none;" d="M73 54L74 55L73 54z"/>
<path style="fill:#2e2e2e; stroke:none;" d="M145.667 54.3333L146.333 54.6667L145.667 54.3333z"/>
<path style="fill:#606060; stroke:none;" d="M147.667 54.3333L148.333 54.6667L147.667 54.3333z"/>
<path style="fill:#a3a3a3; stroke:none;" d="M149 54L149 55L152 55L149 54z"/>
<path style="fill:#606060; stroke:none;" d="M158 54L159 55L158 54z"/>
<path style="fill:#a3a3a3; stroke:none;" d="M240 54L241 55L240 54z"/>
<path style="fill:#2e2e2e; stroke:none;" d="M319 54L320 55L319 54z"/>
<path style="fill:#606060; stroke:none;" d="M346 54L347 55L346 54M385 54L386 55L385 54z"/>
<path style="fill:#a3a3a3; stroke:none;" d="M444 54L445 55L444 54z"/>
<path style="fill:#2e2e2e; stroke:none;" d="M523.667 54.3333L524.333 54.6667L523.667 54.3333z"/>
<path style="fill:#606060; stroke:none;" d="M525.667 54.3333L526.333 54.6667L525.667 54.3333z"/>
<path style="fill:#a3a3a3; stroke:none;" d="M527 54L527 55L530 55L527 54z"/>
<path style="fill:#606060; stroke:none;" d="M536 54L537 55L536 54z"/>
<path style="fill:#a3a3a3; stroke:none;" d="M622 54L623 55L622 54z"/>
<path style="fill:#2e2e2e; stroke:none;" d="M632 54L633 55L632 54M737 54L738 55L737 54z"/>
<path style="fill:#606060; stroke:none;" d="M781 54L782 55L781 54z"/>
<path style="fill:#a3a3a3; stroke:none;" d="M818 54L819 55L818 54M853 54L854 55L853 54z"/>
<path style="fill:#2e2e2e; stroke:none;" d="M155 55L156 56L155 55z"/>
<path style="fill:#606060; stroke:none;" d="M156.667 55.3333L157.333 55.6667L156.667 55.3333z"/>
<path style="fill:#a3a3a3; stroke:none;" d="M260 55L261 56L260 55M279.667 55.3333L280.333 55.6667L279.667 55.3333z"/>
<path style="fill:#606060; stroke:none;" d="M281.667 55.3333L282.333 55.6667L281.667 55.3333z"/>
<path style="fill:#2e2e2e; stroke:none;" d="M283 55L284 56L283 55z"/>
<path style="fill:#606060; stroke:none;" d="M345 55L346 56L345 55z"/>
<path style="fill:#a3a3a3; stroke:none;" d="M387 55L388 56L387 55z"/>
<path style="fill:#2e2e2e; stroke:none;" d="M533 55L534 56L533 55z"/>
<path style="fill:#606060; stroke:none;" d="M534.667 55.3333L535.333 55.6667L534.667 55.3333M621 55L622 56L621 55z"/>
<path style="fill:#2e2e2e; stroke:none;" d="M633 55L634 56L633 55z"/>
<path style="fill:#a3a3a3; stroke:none;" d="M736 55L737 56L736 55M781 55L782 56L781 55z"/>
<path style="fill:#2e2e2e; stroke:none;" d="M853 55L854 56L853 55z"/>
<path style="fill:#606060; stroke:none;" d="M239 56L240 57L239 56z"/>
<path style="fill:#a3a3a3; stroke:none;" d="M271 56L271 57L274 57L271 56z"/>
<path style="fill:#606060; stroke:none;" d="M274.667 56.3333L275.333 56.6667L274.667 56.3333z"/>
<path style="fill:#2e2e2e; stroke:none;" d="M276 56L277 57L276 56z"/>
<path style="fill:#606060; stroke:none;" d="M344 56L345 57L344 56z"/>
<path style="fill:#2e2e2e; stroke:none;" d="M388 56L389 57L388 56z"/>
<path style="fill:#a3a3a3; stroke:none;" d="M389 56L390 57L389 56M445 56L446 57L445 56M620 56L621 57L620 56z"/>
<path style="fill:#606060; stroke:none;" d="M634 56L635 57L634 56M736 56L737 57L736 56z"/>
<path style="fill:#2e2e2e; stroke:none;" d="M819 56L820 57L819 56z"/>
<path style="fill:#a3a3a3; stroke:none;" d="M238 57L239 58L238 57M264.667 57.3333L265.333 57.6667L264.667 57.3333z"/>
<path style="fill:#606060; stroke:none;" d="M266.667 57.3333L267.333 57.6667L266.667 57.3333z"/>
<path style="fill:#2e2e2e; stroke:none;" d="M268 57L269 58L268 57z"/>
<path style="fill:#a3a3a3; stroke:none;" d="M343 57L344 58L343 57M391 57L392 58L391 57z"/>
<path style="fill:#2e2e2e; stroke:none;" d="M446 57L447 58L446 57M736 57L737 58L736 57M782 57L783 58L782 57z"/>
<path style="fill:#606060; stroke:none;" d="M819 57L820 58L819 57z"/>
<path style="fill:#a3a3a3; stroke:none;" d="M852 57L853 58L852 57z"/>
<path style="fill:#606060; stroke:none;" d="M238 58L239 59L238 58z"/>
<path style="fill:#2e2e2e; stroke:none;" d="M344 58L345 59L344 58z"/>
<path style="fill:#606060; stroke:none;" d="M393 58L394 59L393 58z"/>
<path style="fill:#a3a3a3; stroke:none;" d="M394 58L395 59L394 58M446 58L447 59L446 58M619 58L620 59L619 58z"/>
<path style="fill:#606060; stroke:none;" d="M782 58L783 59L782 58z"/>
<path style="fill:#a3a3a3; stroke:none;" d="M819 58L820 59L819 58z"/>
<path style="fill:#2e2e2e; stroke:none;" d="M852 58L853 59L852 58z"/>
<path style="fill:#a3a3a3; stroke:none;" d="M344 59L345 60L344 59z"/>
<path style="fill:#606060; stroke:none;" d="M396 59L397 60L396 59z"/>
<path style="fill:#a3a3a3; stroke:none;" d="M397 59L398 60L397 59z"/>
<path style="fill:#2e2e2e; stroke:none;" d="M447 59L448 60L447 59M619 59L620 60L619 59z"/>
<path style="fill:#a3a3a3; stroke:none;" d="M735 59L736 60L735 59M782.333 59.6667L782.667 60.3333L782.333 59.6667M851 59L852 60L851 59M80 60L81 61L80 60z"/>
<path style="fill:#606060; stroke:none;" d="M345 60L346 61L345 60M399 60L400 61L399 60z"/>
<path style="fill:#a3a3a3; stroke:none;" d="M400 60L401 61L400 60M447 60L448 61L447 60M736 60L736 61L741 61L736 60z"/>
<path style="fill:#606060; stroke:none;" d="M820 60L821 61L820 60M851 60L852 61L851 60z"/>
<path style="fill:#2e2e2e; stroke:none;" d="M81 61L82 62L81 61z"/>
<path style="fill:#a3a3a3; stroke:none;" d="M237 61L238 62L237 61z"/>
<path style="fill:#2e2e2e; stroke:none;" d="M402 61L403 62L402 61z"/>
<path style="fill:#606060; stroke:none;" d="M403 61L404 62L403 61z"/>
<path style="fill:#a3a3a3; stroke:none;" d="M404 61L405 62L404 61M618 61L619 62L618 61M820 61L821 62L820 61M31 62C31 67.9408 28.4474 78.7396 36 80L36 79L32 79L31 62z"/>
<path style="fill:#010101; stroke:none;" d="M32 62L32 79C37.8556 79 45.4573 80.2626 50.9954 78.1065C57.0606 75.7452 59.1997 67.7599 52.9414 64.1644C47.0599 60.7854 38.4949 62 32 62z"/>
<path style="fill:#2e2e2e; stroke:none;" d="M47.6667 62.3333L48.3333 62.6667L47.6667 62.3333z"/>
<path style="fill:#606060; stroke:none;" d="M49 62L50 63L49 62z"/>
<path style="fill:#a3a3a3; stroke:none;" d="M50.6667 62.3333L51.3333 62.6667L50.6667 62.3333M81 62L82 63L81 62z"/>
<path style="fill:#606060; stroke:none;" d="M237.333 62.6667L237.667 63.3333L237.333 62.6667M346 62L347 63L346 62z"/>
<path style="fill:#2e2e2e; stroke:none;" d="M406 62L407 63L406 62z"/>
<path style="fill:#606060; stroke:none;" d="M407 62L408 63L407 62z"/>
<path style="fill:#a3a3a3; stroke:none;" d="M408 62L409 63L408 62z"/>
<path style="fill:#2e2e2e; stroke:none;" d="M448 62L449 63L448 62z"/>
<path style="fill:#606060; stroke:none;" d="M618.333 62.6667L618.667 63.3333L618.333 62.6667z"/>
<path style="fill:#a3a3a3; stroke:none;" d="M850 62L851 63L850 62z"/>
<path style="fill:#2e2e2e; stroke:none;" d="M52 63L53 64L52 63z"/>
<path style="fill:#a3a3a3; stroke:none;" d="M53 63L54 64L53 63z"/>
<path style="fill:#2e2e2e; stroke:none;" d="M82 63L83 64L82 63M347 63L348 64L347 63M410 63L411 64L410 63z"/>
<path style="fill:#606060; stroke:none;" d="M411 63L412 64L411 63z"/>
<path style="fill:#a3a3a3; stroke:none;" d="M412 63L413 64L412 63z"/>
<path style="fill:#606060; stroke:none;" d="M448 63L449 64L448 63M821 63L822 64L821 63M850 63L851 64L850 63z"/>
<path style="fill:#2e2e2e; stroke:none;" d="M54 64L55 65L54 64z"/>
<path style="fill:#a3a3a3; stroke:none;" d="M82 64L83 65L82 64z"/>
<path style="fill:#2e2e2e; stroke:none;" d="M237 64L237 70L238 70L237 64z"/>
<path style="fill:#a3a3a3; stroke:none;" d="M347 64L348 65L347 64z"/>
<path style="fill:#606060; stroke:none;" d="M414 64L415 65L414 64z"/>
<path style="fill:#a3a3a3; stroke:none;" d="M415 64L416 65L415 64M448 64L449 65L448 64z"/>
<path style="fill:#2e2e2e; stroke:none;" d="M618 64L618 68L619 68L618 64M783.333 64.6667L783.667 65.3333L783.333 64.6667z"/>
<path style="fill:#a3a3a3; stroke:none;" d="M821 64L822 65L821 64z"/>
<path style="fill:#2e2e2e; stroke:none;" d="M55 65L56 66L55 65M348 65L349 66L348 65z"/>
<path style="fill:#a3a3a3; stroke:none;" d="M417 65L418 66L417 65M849 65L850 66L849 65z"/>
<path style="fill:#606060; stroke:none;" d="M56 66L57 67L56 66M83 66L84 67L83 66z"/>
<path style="fill:#a3a3a3; stroke:none;" d="M348 66L349 67L348 66M419 66L420 67L419 66z"/>
<path style="fill:#606060; stroke:none;" d="M783 66L783 72L784 72L783 66z"/>
<path style="fill:#2e2e2e; stroke:none;" d="M822 66L823 67L822 66M849 66L850 67L849 66z"/>
<path style="fill:#a3a3a3; stroke:none;" d="M83 67L84 68L83 67z"/>
<path style="fill:#606060; stroke:none;" d="M349 67L350 68L349 67M420 67L421 68L420 67z"/>
<path style="fill:#a3a3a3; stroke:none;" d="M822 67L823 68L822 67M848 67L849 68L848 67M176 68L177 69L176 68z"/>
<path style="fill:#606060; stroke:none;" d="M177 68L178 73L179 73L177 68M421 68L422 69L421 68z"/>
<path style="fill:#a3a3a3; stroke:none;" d="M554 68L555 69L554 68z"/>
<path style="fill:#606060; stroke:none;" d="M555 68L556 73L557 73L555 68M848 68L849 69L848 68z"/>
<path style="fill:#a3a3a3; stroke:none;" d="M173 69L174 70L173 69z"/>
<path style="fill:#606060; stroke:none;" d="M174 69L175 70L174 69z"/>
<path style="fill:#010101; stroke:none;" d="M178 69C174.92 69.4531 171.994 70.2824 169 71.1412C166.685 71.8054 164.184 72.3889 162.059 73.5579C158.16 75.7018 156.292 81.9618 161.228 84.2577C166.748 86.8249 174.142 83.0466 176.682 77.9846C178.079 75.2013 177.975 72.0269 178 69z"/>
<path style="fill:#a3a3a3; stroke:none;" d="M350 69L351 70L350 69M422 69L423 70L422 69z"/>
<path style="fill:#2e2e2e; stroke:none;" d="M449 69L450 70L449 69z"/>
<path style="fill:#a3a3a3; stroke:none;" d="M551 69L552 70L551 69z"/>
<path style="fill:#606060; stroke:none;" d="M552 69L553 70L552 69z"/>
<path style="fill:#010101; stroke:none;" d="M556 69C552.92 69.4531 549.994 70.2824 547 71.1412C544.685 71.8054 542.184 72.3889 540.059 73.5579C536.16 75.7018 534.292 81.9617 539.228 84.2577C544.748 86.8249 552.142 83.0466 554.682 77.9846C556.079 75.2013 555.975 72.0269 556 69z"/>
<path style="fill:#2e2e2e; stroke:none;" d="M823 69L824 70L823 69M84.3333 70.6667L84.6667 71.3333L84.3333 70.6667z"/>
<path style="fill:#a3a3a3; stroke:none;" d="M169.667 70.3333L170.333 70.6667L169.667 70.3333z"/>
<path style="fill:#2e2e2e; stroke:none;" d="M171 70L172 71L171 70z"/>
<path style="fill:#606060; stroke:none;" d="M237 70L238 71L237 70z"/>
<path style="fill:#2e2e2e; stroke:none;" d="M351 70L352 71L351 70z"/>
<path style="fill:#a3a3a3; stroke:none;" d="M547.667 70.3333L548.333 70.6667L547.667 70.3333z"/>
<path style="fill:#2e2e2e; stroke:none;" d="M549 70L550 71L549 70z"/>
<path style="fill:#a3a3a3; stroke:none;" d="M823.333 70.6667L823.667 71.3333L823.333 70.6667M847 70L848 71L847 70M166 71L167 72L166 71z"/>
<path style="fill:#606060; stroke:none;" d="M167 71L168 72L167 71z"/>
<path style="fill:#a3a3a3; stroke:none;" d="M237.333 71.6667L237.667 72.3333L237.333 71.6667M351 71L352 72L351 71M397.333 71.6667L397.667 72.3333L397.333 71.6667M544 71L545 72L544 71z"/>
<path style="fill:#606060; stroke:none;" d="M545 71L546 72L545 71M826 71L827 72L826 71M847 71L848 72L847 71M84.3333 72.6667L84.6667 73.3333L84.3333 72.6667z"/>
<path style="fill:#a3a3a3; stroke:none;" d="M163 72L164 73L163 72z"/>
<path style="fill:#606060; stroke:none;" d="M164 72L165 73L164 72M352 72L353 73L352 72z"/>
<path style="fill:#a3a3a3; stroke:none;" d="M541 72L542 73L541 72z"/>
<path style="fill:#606060; stroke:none;" d="M542 72L543 73L542 72z"/>
<path style="fill:#a3a3a3; stroke:none;" d="M735.333 72.6667L735.667 73.3333L735.333 72.6667M826 72L827 73L826 72z"/>
<path style="fill:#606060; stroke:none;" d="M161 73L162 74L161 73z"/>
<path style="fill:#a3a3a3; stroke:none;" d="M178 73L179 74L178 73z"/>
<path style="fill:#606060; stroke:none;" d="M327 73L328 74L327 73M539 73L540 74L539 73z"/>
<path style="fill:#a3a3a3; stroke:none;" d="M556 73L557 74L556 73z"/>
<path style="fill:#606060; stroke:none;" d="M824 73L825 74L824 73z"/>
<path style="fill:#a3a3a3; stroke:none;" d="M846 73L847 74L846 73z"/>
<path style="fill:#2e2e2e; stroke:none;" d="M84.3333 74.6667L84.6667 75.3333L84.3333 74.6667z"/>
<path style="fill:#a3a3a3; stroke:none;" d="M159 74L160 75L159 74z"/>
<path style="fill:#2e2e2e; stroke:none;" d="M238 74L239 75L238 74M326 74L327 75L326 74z"/>
<path style="fill:#a3a3a3; stroke:none;" d="M328 74L329 75L328 74z"/>
<path style="fill:#606060; stroke:none;" d="M353 74L354 75L353 74M398 74L399 75L398 74z"/>
<path style="fill:#a3a3a3; stroke:none;" d="M448.333 74.6667L448.667 75.3333L448.333 74.6667M537 74L538 75L537 74M824 74L825 75L824 74z"/>
<path style="fill:#2e2e2e; stroke:none;" d="M846 74L847 75L846 74z"/>
<path style="fill:#a3a3a3; stroke:none;" d="M158 75L159 76L158 75M238 75L239 76L238 75z"/>
<path style="fill:#2e2e2e; stroke:none;" d="M325 75L326 76L325 75M328 75L329 76L328 75z"/>
<path style="fill:#a3a3a3; stroke:none;" d="M536 75L537 76L536 75z"/>
<path style="fill:#2e2e2e; stroke:none;" d="M736 75L737 76L736 75z"/>
<path style="fill:#606060; stroke:none;" d="M825 75L826 76L825 75z"/>
<path style="fill:#2e2e2e; stroke:none;" d="M239 76L240 77L239 76M324 76L325 77L324 76z"/>
<path style="fill:#a3a3a3; stroke:none;" d="M329 76L330 77L329 76M354 76L355 77L354 76M399 76L400 77L399 76z"/>
<path style="fill:#2e2e2e; stroke:none;" d="M448 76L449 77L448 76z"/>
<path style="fill:#606060; stroke:none;" d="M736 76L737 77L736 76M845 76L846 77L845 76z"/>
<path style="fill:#a3a3a3; stroke:none;" d="M157 77L158 78L157 77M239 77L240 78L239 77z"/>
<path style="fill:#2e2e2e; stroke:none;" d="M323 77L324 78L323 77M329 77L330 78L329 77M355 77L356 78L355 77z"/>
<path style="fill:#606060; stroke:none;" d="M400 77L401 78L400 77z"/>
<path style="fill:#2e2e2e; stroke:none;" d="M490 77L491 78L490 77z"/>
<path style="fill:#a3a3a3; stroke:none;" d="M535 77L536 78L535 77M736 77L737 78L736 77z"/>
<path style="fill:#2e2e2e; stroke:none;" d="M845 77L846 78L845 77z"/>
<path style="fill:#a3a3a3; stroke:none;" d="M83.3333 78.6667L83.6667 79.3333L83.3333 78.6667z"/>
<path style="fill:#606060; stroke:none;" d="M157 78L157 81L158 81L157 78M240 78L241 79L240 78z"/>
<path style="fill:#a3a3a3; stroke:none;" d="M355 78L356 79L355 78z"/>
<path style="fill:#606060; stroke:none;" d="M401 78L402 79L401 78z"/>
<path style="fill:#a3a3a3; stroke:none;" d="M447 78L448 79L447 78z"/>
<path style="fill:#606060; stroke:none;" d="M490 78L491 79L490 78M535 78L535 81L536 81L535 78z"/>
<path style="fill:#2e2e2e; stroke:none;" d="M737 78L738 79L737 78z"/>
<path style="fill:#a3a3a3; stroke:none;" d="M844 78L845 79L844 78z"/>
<path style="fill:#606060; stroke:none;" d="M241 79L242 80L241 79z"/>
<path style="fill:#2e2e2e; stroke:none;" d="M284 79L285 80L284 79z"/>
<path style="fill:#606060; stroke:none;" d="M356 79L357 80L356 79z"/>
<path style="fill:#a3a3a3; stroke:none;" d="M402.667 79.3333L403.333 79.6667L402.667 79.3333z"/>
<path style="fill:#606060; stroke:none;" d="M447 79L448 80L447 79z"/>
<path style="fill:#a3a3a3; stroke:none;" d="M490 79L491 80L490 79M737 79L738 80L737 79z"/>
<path style="fill:#606060; stroke:none;" d="M844 79L845 80L844 79M83 80L84 81L83 80z"/>
<path style="fill:#a3a3a3; stroke:none;" d="M242 80L243 81L242 80z"/>
<path style="fill:#2e2e2e; stroke:none;" d="M243 80L244 81L243 80z"/>
<path style="fill:#a3a3a3; stroke:none;" d="M283 80L284 81L283 80z"/>
<path style="fill:#2e2e2e; stroke:none;" d="M491 80L492 81L491 80z"/>
<path style="fill:#606060; stroke:none;" d="M738 80L739 81L738 80z"/>
<path style="fill:#a3a3a3; stroke:none;" d="M157 81L158 82L157 81z"/>
<path style="fill:#2e2e2e; stroke:none;" d="M283 81L284 82L283 81z"/>
<path style="fill:#a3a3a3; stroke:none;" d="M357 81L358 82L357 81z"/>
<path style="fill:#606060; stroke:none;" d="M446 81L447 82L446 81z"/>
<path style="fill:#a3a3a3; stroke:none;" d="M492 81L493 82L492 81z"/>
<path style="fill:#2e2e2e; stroke:none;" d="M493.667 81.3333L494.333 81.6667L493.667 81.3333z"/>
<path style="fill:#a3a3a3; stroke:none;" d="M535 81L536 82L535 81z"/>
<path style="fill:#606060; stroke:none;" d="M739 81L740 82L739 81z"/>
<path style="fill:#a3a3a3; stroke:none;" d="M843 81L844 82L843 81M82 82L83 83L82 82z"/>
<path style="fill:#2e2e2e; stroke:none;" d="M158 82L159 83L158 82z"/>
<path style="fill:#a3a3a3; stroke:none;" d="M282 82L283 83L282 82M318 82L318 98L319 98L318 82z"/>
<path style="fill:#2e2e2e; stroke:none;" d="M358 82L359 83L358 82M536 82L537 83L536 82z"/>
<path style="fill:#606060; stroke:none;" d="M740 82L741 83L740 82z"/>
<path style="fill:#2e2e2e; stroke:none;" d="M843 82L844 83L843 82M82 83L83 84L82 83z"/>
<path style="fill:#a3a3a3; stroke:none;" d="M158 83L159 84L158 83z"/>
<path style="fill:#2e2e2e; stroke:none;" d="M282 83L283 84L282 83z"/>
<path style="fill:#a3a3a3; stroke:none;" d="M358 83L359 84L358 83z"/>
<path style="fill:#606060; stroke:none;" d="M445 83L446 84L445 83z"/>
<path style="fill:#a3a3a3; stroke:none;" d="M536 83L537 84L536 83M81 84L82 85L81 84z"/>
<path style="fill:#606060; stroke:none;" d="M160 84L161 85L160 84z"/>
<path style="fill:#a3a3a3; stroke:none;" d="M281 84L282 85L281 84z"/>
<path style="fill:#606060; stroke:none;" d="M359 84L360 85L359 84z"/>
<path style="fill:#a3a3a3; stroke:none;" d="M444 84L445 85L444 84z"/>
<path style="fill:#606060; stroke:none;" d="M538 84L539 85L538 84z"/>
<path style="fill:#2e2e2e; stroke:none;" d="M780 84L781 85L780 84z"/>
<path style="fill:#a3a3a3; stroke:none;" d="M842 84L843 85L842 84z"/>
<path style="fill:#2e2e2e; stroke:none;" d="M81 85L82 86L81 85M281 85L282 86L281 85M444 85L445 86L444 85z"/>
<path style="fill:#606060; stroke:none;" d="M779 85L780 86L779 85z"/>
<path style="fill:#2e2e2e; stroke:none;" d="M842 85L843 86L842 85z"/>
<path style="fill:#a3a3a3; stroke:none;" d="M80 86L81 87L80 86z"/>
<path style="fill:#606060; stroke:none;" d="M280 86L281 87L280 86M360 86L361 87L360 86M443 86L444 87L443 86z"/>
<path style="fill:#a3a3a3; stroke:none;" d="M778 86L779 87L778 86M841 86L842 87L841 86M279 87L280 88L279 87M442 87L443 88L442 87M777 87L778 88L777 87z"/>
<path style="fill:#606060; stroke:none;" d="M841 87L842 88L841 87z"/>
<path style="fill:#2e2e2e; stroke:none;" d="M79 88L80 89L79 88M202 88L203 89L202 88z"/>
<path style="fill:#a3a3a3; stroke:none;" d="M278 88L279 89L278 88M361 88L362 89L361 88M441 88L442 89L441 88z"/>
<path style="fill:#2e2e2e; stroke:none;" d="M503.333 88.6667L503.667 89.3333L503.333 88.6667M580 88L581 89L580 88z"/>
<path style="fill:#606060; stroke:none;" d="M78 89L79 90L78 89M202.333 89.6667L202.667 90.3333L202.333 89.6667z"/>
<path style="fill:#a3a3a3; stroke:none;" d="M277 89L278 90L277 89z"/>
<path style="fill:#2e2e2e; stroke:none;" d="M362 89L363 90L362 89z"/>
<path style="fill:#a3a3a3; stroke:none;" d="M440 89L441 90L440 89z"/>
<path style="fill:#606060; stroke:none;" d="M580.333 89.6667L580.667 90.3333L580.333 89.6667z"/>
<path style="fill:#2e2e2e; stroke:none;" d="M776 89L777 90L776 89z"/>
<path style="fill:#a3a3a3; stroke:none;" d="M840 89L841 90L840 89z"/>
<path style="fill:#606060; stroke:none;" d="M77 90L78 91L77 90M179 90L180 91L179 90z"/>
<path style="fill:#a3a3a3; stroke:none;" d="M276 90L277 91L276 90M362 90L363 91L362 90M439 90L440 91L439 90z"/>
<path style="fill:#606060; stroke:none;" d="M503.333 90.6667L503.667 91.3333L503.333 90.6667M557 90L558 91L557 90z"/>
<path style="fill:#2e2e2e; stroke:none;" d="M775 90L776 91L775 90z"/>
<path style="fill:#606060; stroke:none;" d="M840 90L841 91L840 90z"/>
<path style="fill:#2e2e2e; stroke:none;" d="M76 91L77 92L76 91z"/>
<path style="fill:#606060; stroke:none;" d="M178 91L179 92L178 91z"/>
<path style="fill:#a3a3a3; stroke:none;" d="M180.333 91.6667L180.667 92.3333L180.333 91.6667M202 91L203 92L202 91M223 91L224 92L223 91M275 91L276 92L275 91z"/>
<path style="fill:#606060; stroke:none;" d="M363 91L364 92L363 91M438 91L439 92L438 91M556 91L557 92L556 91z"/>
<path style="fill:#a3a3a3; stroke:none;" d="M558.333 91.6667L558.667 92.3333L558.333 91.6667M580 91L581 92L580 91M773 91L774 92L773 91M74 92L75 93L74 92z"/>
<path style="fill:#2e2e2e; stroke:none;" d="M75 92L76 93L75 92M177 92L178 93L177 92z"/>
<path style="fill:#606060; stroke:none;" d="M224 92L225 93L224 92z"/>
<path style="fill:#a3a3a3; stroke:none;" d="M225 92L226 93L225 92M274 92L275 93L274 92M382 92L383 93L382 92M436 92L437 93L436 92z"/>
<path style="fill:#2e2e2e; stroke:none;" d="M437 92L438 93L437 92z"/>
<path style="fill:#a3a3a3; stroke:none;" d="M503 92L503 95L504 95L503 92z"/>
<path style="fill:#2e2e2e; stroke:none;" d="M555 92L556 93L555 92z"/>
<path style="fill:#a3a3a3; stroke:none;" d="M722 92L723 93L722 92M772 92L773 93L772 92M839 92L840 93L839 92M73 93L74 94L73 93M175 93L176 94L175 93z"/>
<path style="fill:#606060; stroke:none;" d="M180 93L181 94L180 93z"/>
<path style="fill:#2e2e2e; stroke:none;" d="M203 93L204 94L203 93z"/>
<path style="fill:#606060; stroke:none;" d="M226 93L227 94L226 93z"/>
<path style="fill:#2e2e2e; stroke:none;" d="M273 93L274 94L273 93z"/>
<path style="fill:#a3a3a3; stroke:none;" d="M364 93L365 94L364 93M384 93L385 94L384 93M435 93L436 94L435 93M553 93L554 94L553 93z"/>
<path style="fill:#606060; stroke:none;" d="M558 93L559 94L558 93z"/>
<path style="fill:#2e2e2e; stroke:none;" d="M581 93L582 94L581 93M723 93L724 94L723 93z"/>
<path style="fill:#a3a3a3; stroke:none;" d="M724 93L725 94L724 93z"/>
<path style="fill:#606060; stroke:none;" d="M771 93L772 94L771 93z"/>
<path style="fill:#2e2e2e; stroke:none;" d="M839 93L840 94L839 93z"/>
<path style="fill:#a3a3a3; stroke:none;" d="M71 94L72 95L71 94z"/>
<path style="fill:#2e2e2e; stroke:none;" d="M72 94L73 95L72 94z"/>
<path style="fill:#606060; stroke:none;" d="M174 94L175 95L174 94z"/>
<path style="fill:#a3a3a3; stroke:none;" d="M203 94L204 95L203 94z"/>
<path style="fill:#2e2e2e; stroke:none;" d="M227 94L228 95L227 94z"/>
<path style="fill:#a3a3a3; stroke:none;" d="M228 94L229 95L228 94M271 94L272 95L271 94z"/>
<path style="fill:#2e2e2e; stroke:none;" d="M365 94L366 95L365 94M385 94L386 95L385 94z"/>
<path style="fill:#a3a3a3; stroke:none;" d="M386 94L387 95L386 94M433 94L434 95L433 94z"/>
<path style="fill:#606060; stroke:none;" d="M552 94L553 95L552 94z"/>
<path style="fill:#a3a3a3; stroke:none;" d="M581 94L582 95L581 94z"/>
<path style="fill:#606060; stroke:none;" d="M725 94L726 95L725 94z"/>
<path style="fill:#a3a3a3; stroke:none;" d="M769 94L770 95L769 94M68 95L69 96L68 95z"/>
<path style="fill:#606060; stroke:none;" d="M69 95L70 96L69 95M140 95L141 96L140 95z"/>
<path style="fill:#a3a3a3; stroke:none;" d="M141 95L142 96L141 95M172 95L173 96L172 95M181 95L182 96L181 95z"/>
<path style="fill:#2e2e2e; stroke:none;" d="M229 95L230 96L229 95z"/>
<path style="fill:#a3a3a3; stroke:none;" d="M230 95L231 96L230 95M269 95L270 96L269 95M365 95L366 96L365 95z"/>
<path style="fill:#2e2e2e; stroke:none;" d="M387 95L388 96L387 95z"/>
<path style="fill:#a3a3a3; stroke:none;" d="M388 95L389 96L388 95M431 95L432 96L431 95z"/>
<path style="fill:#606060; stroke:none;" d="M518 95L519 96L518 95z"/>
<path style="fill:#a3a3a3; stroke:none;" d="M519 95L520 96L519 95M550 95L551 96L550 95M559 95L560 96L559 95M727 95L728 96L727 95M767 95L768 96L767 95z"/>
<path style="fill:#2e2e2e; stroke:none;" d="M768 95L769 96L768 95z"/>
<path style="fill:#606060; stroke:none;" d="M838 95L839 96L838 95z"/>
<path style="fill:#a3a3a3; stroke:none;" d="M63.6667 96.3333L64.3333 96.6667L63.6667 96.3333z"/>
<path style="fill:#606060; stroke:none;" d="M65 96L66 97L65 96z"/>
<path style="fill:#2e2e2e; stroke:none;" d="M66 96L67 97L66 96M142 96L143 97L142 96z"/>
<path style="fill:#a3a3a3; stroke:none;" d="M143 96L144 97L143 96M170 96L171 97L170 96z"/>
<path style="fill:#606060; stroke:none;" d="M181 96L182 97L181 96z"/>
<path style="fill:#a3a3a3; stroke:none;" d="M204 96L185 97L185 98L204 96z"/>
<path style="fill:#606060; stroke:none;" d="M232 96L233 97L232 96z"/>
<path style="fill:#a3a3a3; stroke:none;" d="M233 96L234 97L233 96M266 96L267 97L266 96z"/>
<path style="fill:#606060; stroke:none;" d="M267 96L268 97L267 96z"/>
<path style="fill:#2e2e2e; stroke:none;" d="M366 96L367 97L366 96z"/>
<path style="fill:#606060; stroke:none;" d="M390 96L391 97L390 96z"/>
<path style="fill:#a3a3a3; stroke:none;" d="M391 96L392 97L391 96M428 96L429 97L428 96z"/>
<path style="fill:#606060; stroke:none;" d="M429 96L430 97L429 96M473 96L474 97L473 96z"/>
<path style="fill:#2e2e2e; stroke:none;" d="M520 96L521 97L520 96z"/>
<path style="fill:#a3a3a3; stroke:none;" d="M521 96L522 97L521 96M548 96L549 97L548 96z"/>
<path style="fill:#606060; stroke:none;" d="M559 96L560 97L559 96z"/>
<path style="fill:#a3a3a3; stroke:none;" d="M582 96L563 97L563 98L582 96z"/>
<path style="fill:#606060; stroke:none;" d="M729 96L730 97L729 96z"/>
<path style="fill:#a3a3a3; stroke:none;" d="M730 96L731 97L730 96M764 96L765 97L764 96z"/>
<path style="fill:#606060; stroke:none;" d="M765 96L766 97L765 96z"/>
<path style="fill:#2e2e2e; stroke:none;" d="M838 96L839 97L838 96z"/>
<path style="fill:#a3a3a3; stroke:none;" d="M55 97L55 98L58 98L55 97z"/>
<path style="fill:#606060; stroke:none;" d="M58.6667 97.3333L59.3333 97.6667L58.6667 97.3333z"/>
<path style="fill:#2e2e2e; stroke:none;" d="M60 97L61 98L60 97M144 97L145 98L144 97z"/>
<path style="fill:#a3a3a3; stroke:none;" d="M145 97L146 98L145 97M166.667 97.3333L167.333 97.6667L166.667 97.3333z"/>
<path style="fill:#2e2e2e; stroke:none;" d="M168 97L169 98L168 97M234 97L235 98L234 97z"/>
<path style="fill:#606060; stroke:none;" d="M235 97L236 98L235 97z"/>
<path style="fill:#a3a3a3; stroke:none;" d="M236 97L237 98L236 97M263 97L264 98L263 97z"/>
<path style="fill:#606060; stroke:none;" d="M264 97L265 98L264 97z"/>
<path style="fill:#2e2e2e; stroke:none;" d="M265 97L266 98L265 97z"/>
<path style="fill:#a3a3a3; stroke:none;" d="M366 97L367 98L366 97z"/>
<path style="fill:#2e2e2e; stroke:none;" d="M393 97L394 98L393 97z"/>
<path style="fill:#606060; stroke:none;" d="M394 97L395 98L394 97z"/>
<path style="fill:#a3a3a3; stroke:none;" d="M395 97L396 98L395 97M424.667 97.3333L425.333 97.6667L424.667 97.3333z"/>
<path style="fill:#2e2e2e; stroke:none;" d="M426 97L427 98L426 97z"/>
<path style="fill:#606060; stroke:none;" d="M475 97L476 98L475 97z"/>
<path style="fill:#a3a3a3; stroke:none;" d="M476 97L477 98L476 97M500.667 97.3333L501.333 97.6667L500.667 97.3333z"/>
<path style="fill:#606060; stroke:none;" d="M502 97L503 98L502 97z"/>
<path style="fill:#2e2e2e; stroke:none;" d="M503 97L504 98L503 97M522 97L523 98L522 97z"/>
<path style="fill:#a3a3a3; stroke:none;" d="M523 97L524 98L523 97M544.667 97.3333L545.333 97.6667L544.667 97.3333z"/>
<path style="fill:#2e2e2e; stroke:none;" d="M546 97L547 98L546 97z"/>
<path style="fill:#606060; stroke:none;" d="M732 97L733 98L732 97z"/>
<path style="fill:#a3a3a3; stroke:none;" d="M733 97L734 98L733 97M761 97L762 98L761 97z"/>
<path style="fill:#606060; stroke:none;" d="M762 97L763 98L762 97z"/>
<path style="fill:#a3a3a3; stroke:none;" d="M837 97L838 98L837 97z"/>
<path style="fill:#2e2e2e; stroke:none;" d="M147 98L148 99L147 98z"/>
<path style="fill:#606060; stroke:none;" d="M148 98L149 99L148 98z"/>
<path style="fill:#a3a3a3; stroke:none;" d="M149 98L149 99L152 99L149 98M161.667 98.3333L162.333 98.6667L161.667 98.3333z"/>
<path style="fill:#606060; stroke:none;" d="M163 98L164 99L163 98z"/>
<path style="fill:#2e2e2e; stroke:none;" d="M164 98L165 99L164 98M239 98L240 99L239 98z"/>
<path style="fill:#606060; stroke:none;" d="M240 98L241 99L240 98z"/>
<path style="fill:#a3a3a3; stroke:none;" d="M241 98L241 99L245 99L241 98M257 98L257 99L260 99L257 98z"/>
<path style="fill:#606060; stroke:none;" d="M260 98L261 99L260 98z"/>
<path style="fill:#2e2e2e; stroke:none;" d="M261 98L262 99L261 98M398 98L399 99L398 98z"/>
<path style="fill:#606060; stroke:none;" d="M399.667 98.3333L400.333 98.6667L399.667 98.3333z"/>
<path style="fill:#a3a3a3; stroke:none;" d="M401 98L401 99L404 99L401 98M417 98L417 99L420 99L417 98z"/>
<path style="fill:#606060; stroke:none;" d="M420.667 98.3333L421.333 98.6667L420.667 98.3333z"/>
<path style="fill:#2e2e2e; stroke:none;" d="M422 98L423 99L422 98M478 98L479 99L478 98z"/>
<path style="fill:#606060; stroke:none;" d="M479 98L480 99L479 98z"/>
<path style="fill:#a3a3a3; stroke:none;" d="M480.667 98.3333L481.333 98.6667L480.667 98.3333M493 98L493 99L496 99L493 98z"/>
<path style="fill:#606060; stroke:none;" d="M496.667 98.3333L497.333 98.6667L496.667 98.3333z"/>
<path style="fill:#2e2e2e; stroke:none;" d="M498 98L499 99L498 98M525 98L526 99L525 98z"/>
<path style="fill:#606060; stroke:none;" d="M526 98L527 99L526 98z"/>
<path style="fill:#a3a3a3; stroke:none;" d="M527 98L527 99L530 99L527 98M539.667 98.3333L540.333 98.6667L539.667 98.3333z"/>
<path style="fill:#606060; stroke:none;" d="M541 98L542 99L541 98z"/>
<path style="fill:#2e2e2e; stroke:none;" d="M542 98L543 99L542 98M736 98L737 99L736 98z"/>
<path style="fill:#606060; stroke:none;" d="M737 98L738 99L737 98z"/>
<path style="fill:#a3a3a3; stroke:none;" d="M738 98L738 99L741 99L738 98M754 98L754 99L757 99L754 98z"/>
<path style="fill:#606060; stroke:none;" d="M757 98L758 99L757 98z"/>
<path style="fill:#2e2e2e; stroke:none;" d="M758 98L759 99L758 98z"/>
<path style="fill:#606060; stroke:none;" d="M837 98L838 99L837 98z"/>
<path style="fill:#a3a3a3; stroke:none;" d="M836 100L837 101L836 100z"/>
<path style="fill:#2e2e2e; stroke:none;" d="M836 101L837 102L836 101z"/>
<path style="fill:#a3a3a3; stroke:none;" d="M835 103L836 104L835 103z"/>
<path style="fill:#2e2e2e; stroke:none;" d="M835 104L836 105L835 104z"/>
<path style="fill:#a3a3a3; stroke:none;" d="M834 105L835 106L834 105z"/>
<path style="fill:#2e2e2e; stroke:none;" d="M834 106L835 107L834 106z"/>
<path style="fill:#606060; stroke:none;" d="M833 108L834 109L833 108M832 110L833 111L832 110z"/>
<path style="fill:#2e2e2e; stroke:none;" d="M831 112L832 113L831 112z"/>
<path style="fill:#a3a3a3; stroke:none;" d="M830 113L831 114L830 113z"/>
<path style="fill:#2e2e2e; stroke:none;" d="M829 115L830 116L829 115z"/>
<path style="fill:#606060; stroke:none;" d="M828 116L829 117L828 116M827 117L828 118L827 117z"/>
<path style="fill:#2e2e2e; stroke:none;" d="M826 118L827 119L826 118z"/>
<path style="fill:#a3a3a3; stroke:none;" d="M824 119L825 120L824 119M822 120L823 121L822 120z"/>
<path style="fill:#2e2e2e; stroke:none;" d="M823 120L824 121L823 120z"/>
<path style="fill:#a3a3a3; stroke:none;" d="M819 121L820 122L819 121z"/>
<path style="fill:#606060; stroke:none;" d="M820 121L821 122L820 121z"/>
<path style="fill:#2e2e2e; stroke:none;" d="M796.667 122.333L797.333 122.667L796.667 122.333z"/>
<path style="fill:#606060; stroke:none;" d="M798.667 122.333L799.333 122.667L798.667 122.333z"/>
<path style="fill:#a3a3a3; stroke:none;" d="M800 122L800 123L803 123L800 122M813 122L813 123L816 123L813 122z"/>
<path style="fill:#606060; stroke:none;" d="M816 122L817 123L816 122z"/>
<path style="fill:#2e2e2e; stroke:none;" d="M817 122L818 123L817 122z"/>
</svg>
