<?xml version="1.0" standalone="yes"?>
<svg xmlns="http://www.w3.org/2000/svg" width="1245" height="235">
<path style="fill:#010101; stroke:none;" d="M0 0L0 235L1245 235L1245 0L0 0z"/>
<path style="fill:#ffffff; stroke:none;" d="M146 30L146 176L179 175L179 30L146 30M417 30L417 176L450 175C450 162.471 445.157 138.4 456 130C459.835 141.865 468.024 152.479 474.576 163C476.748 166.486 479.27 172.929 483.21 174.687C492.23 178.711 511.008 175 521 175L496.667 137L482 116L482 115L503.25 90L519 70L481.09 70.6034L470.873 82L451 111L450 111L450 30L417 30M966 30L966 176L999 175L999 30L966 30M525 134C525 141.357 521.436 161.473 526.028 167.262C530.461 172.85 548.199 174.956 555 176.08C583.33 180.762 627.794 177.095 634.539 142C640.936 108.716 617.099 95.8891 589 88.8735C580.228 86.6833 556.101 83.4792 563.458 69.0147C572.291 51.6464 602.233 59.8329 615 66.865C620.014 69.6266 624.377 73.6667 630 75L631 43C609.951 31.9087 575.995 29.4324 554 38.8727C530.893 48.7901 518.486 74.454 530.377 98C543.473 123.931 577.652 113.178 595.856 129.529C606.371 138.975 593.621 149.566 584 151.381C570.256 153.974 556.136 149.402 544 143.244C537.648 140.021 532.307 134.49 525 134M18 36L18 175C46.3981 175 85.9881 181.975 111 165.91C130.102 153.64 135.505 122.43 117.907 106.213C113.014 101.704 106.283 100.437 100 99C120.676 86.2863 129.143 51.7264 102 39.8758C91.2124 35.1659 79.4839 36 68 36L18 36M653 40L653 70L640 70L640 93L654 93C651.922 109.44 652.973 126.43 653 143C653.013 151.205 654.15 161.631 660.329 167.726C674.073 181.282 700.225 177.253 717 174C717 170.052 719.46 153.195 716.382 151.132C714.037 149.56 709.432 152.022 707 152.571C700.766 153.979 692.144 153.902 688.228 147.892C684.929 142.827 686 135.741 686 130L686 93L717 93L718 70L686 70L686 40L653 40z"/>
<path style="fill:#9f9f9f; stroke:none;" d="M630 45L630 75L631 75L630 45M113 48L114 49L113 48M114 50L115 51L114 50z"/>
<path style="fill:#2d2d2d; stroke:none;" d="M115 51L116 52L115 51z"/>
<path style="fill:#9f9f9f; stroke:none;" d="M115 52L116 53L115 52z"/>
<path style="fill:#5e5e5e; stroke:none;" d="M116 53L117 54L116 53z"/>
<path style="fill:#9f9f9f; stroke:none;" d="M116 54L117 55L116 54z"/>
<path style="fill:#2d2d2d; stroke:none;" d="M117 55L118 56L117 55z"/>
<path style="fill:#9f9f9f; stroke:none;" d="M117 56L118 57L117 56z"/>
<path style="fill:#2d2d2d; stroke:none;" d="M118 58L119 59L118 58z"/>
<path style="fill:#9f9f9f; stroke:none;" d="M118.333 59.6667L118.667 60.3333L118.333 59.6667M579 59L579 60L582 60L579 59z"/>
<path style="fill:#5e5e5e; stroke:none;" d="M582 59L582 60L590 60L582 59z"/>
<path style="fill:#9f9f9f; stroke:none;" d="M590 59L590 60L593 60L590 59M574.667 60.3333L575.333 60.6667L574.667 60.3333z"/>
<path style="fill:#2d2d2d; stroke:none;" d="M576 60L577 61L576 60M595 60L596 61L595 60z"/>
<path style="fill:#5e5e5e; stroke:none;" d="M596 60L597 61L596 60z"/>
<path style="fill:#9f9f9f; stroke:none;" d="M597.667 60.3333L598.333 60.6667L597.667 60.3333M53 61L53 62L71 62L53 61z"/>
<path style="fill:#5e5e5e; stroke:none;" d="M572 61L573 62L572 61z"/>
<path style="fill:#2d2d2d; stroke:none;" d="M600 61L601 62L600 61z"/>
<path style="fill:#9f9f9f; stroke:none;" d="M601.667 61.3333L602.333 61.6667L601.667 61.3333z"/>
<path style="fill:#010101; stroke:none;" d="M53 62L53 90C60.5721 90 71.2505 91.9315 77.956 87.7716C86.1515 82.6874 85.6654 67.9824 76.9568 63.5725C70.3245 60.2141 60.2348 62 53 62z"/>
<path style="fill:#5e5e5e; stroke:none;" d="M74 62L75 63L74 62z"/>
<path style="fill:#9f9f9f; stroke:none;" d="M75 62L76 63L75 62z"/>
<path style="fill:#2d2d2d; stroke:none;" d="M119 62L120 63L119 62z"/>
<path style="fill:#9f9f9f; stroke:none;" d="M569 62L570 63L569 62z"/>
<path style="fill:#5e5e5e; stroke:none;" d="M570 62L571 63L570 62M604 62L605 63L604 62z"/>
<path style="fill:#9f9f9f; stroke:none;" d="M605 62L606 63L605 62z"/>
<path style="fill:#5e5e5e; stroke:none;" d="M77 63L78 64L77 63M119.333 63.6667L119.667 64.3333L119.333 63.6667M568 63L569 64L568 63z"/>
<path style="fill:#2d2d2d; stroke:none;" d="M606 63L607 64L606 63z"/>
<path style="fill:#9f9f9f; stroke:none;" d="M607 63L608 64L607 63M79 64L80 65L79 64M566 64L567 65L566 64z"/>
<path style="fill:#5e5e5e; stroke:none;" d="M609 64L610 65L609 64z"/>
<path style="fill:#9f9f9f; stroke:none;" d="M610 64L611 65L610 64z"/>
<path style="fill:#5e5e5e; stroke:none;" d="M80 65L81 66L80 65z"/>
<path style="fill:#9f9f9f; stroke:none;" d="M119 65L119 72L120 72L119 65M565 65L566 66L565 65z"/>
<path style="fill:#2d2d2d; stroke:none;" d="M611 65L612 66L611 65z"/>
<path style="fill:#9f9f9f; stroke:none;" d="M612 65L613 66L612 65M81 66L82 67L81 66z"/>
<path style="fill:#ffffff; stroke:none;" d="M204 98C218.737 96.0806 244.466 79.9491 257.436 96.213C259.592 98.9164 259.916 102.806 261 106C242.415 106 217.327 105.892 203.326 120.3C186.353 137.765 195.498 169.274 218 175.956C234.565 180.875 247.931 172.928 261 164L260 175L293 174L293 111C293 100.021 292.7 86.7072 284.647 78.0957C271.205 63.7208 240.672 64.8881 223 67.7539C218.519 68.4805 207.922 68.6544 205.028 72.564C201.332 77.5562 204 91.8996 204 98z"/>
<path style="fill:#9f9f9f; stroke:none;" d="M564 66L565 67L564 66z"/>
<path style="fill:#2d2d2d; stroke:none;" d="M613 66L614 67L613 66z"/>
<path style="fill:#9f9f9f; stroke:none;" d="M614 66L615 67L614 66z"/>
<path style="fill:#ffffff; stroke:none;" d="M731 98C745.737 96.0806 771.466 79.9491 784.436 96.213C786.592 98.9165 786.916 102.806 788 106C769.415 106 744.327 105.892 730.326 120.3C713.353 137.765 722.498 169.274 745 175.956C761.565 180.875 774.931 172.928 788 164L787 175L820 174L820 111C820 100.021 819.7 86.7072 811.647 78.0957C798.205 63.7209 767.672 64.888 750 67.7539C745.519 68.4805 734.922 68.6544 732.028 72.564C728.332 77.5562 731 91.8996 731 98z"/>
<path style="fill:#2d2d2d; stroke:none;" d="M81 67L82 68L81 67z"/>
<path style="fill:#ffffff; stroke:none;" d="M403 141C388.961 141.942 381.341 156.973 365 153.482C338.717 147.868 334.263 105.893 358 93.4421C376.203 83.8939 386.29 101.706 402 104L403 75C389.848 69.8988 377.266 66.4147 363 67.0394C352.65 67.4926 342 70.1769 333 75.3372C305.398 91.1635 300.995 137.689 321.465 160.946C330.324 171.011 345.127 175.6 358 177.05C368.633 178.248 393.713 179.708 400.972 169.362C404.76 163.963 402.466 147.766 403 141z"/>
<path style="fill:#2d2d2d; stroke:none;" d="M564 67L565 68L564 67M615 67L616 68L615 67z"/>
<path style="fill:#9f9f9f; stroke:none;" d="M616 67L617 68L616 67z"/>
<path style="fill:#ffffff; stroke:none;" d="M877 82L877 70L844 70L844 175L877 175L877 121C877 115.514 874.978 104.891 878.603 100.39C885.286 92.0936 903.702 91.6844 906.806 103.171C912.802 125.358 909 152.165 909 175L942 175L942 121C942 109.829 942.828 97.6771 938.907 87C928.522 58.7276 894.519 63.8486 877 82M1117 170L1118 142C1109.49 142.565 1102.16 149.121 1094 151.652C1073.45 158.026 1052.33 151.32 1048 129L1119 129C1119 117.498 1119.73 106.061 1116 95C1105.51 63.9408 1062.13 57.9974 1037 75.7847C1007.32 96.793 1006.98 150.669 1039 169.124C1048.93 174.849 1060.66 177.134 1072 177.91C1087.84 178.995 1102.03 174.086 1117 170z"/>
<path style="fill:#5e5e5e; stroke:none;" d="M563 68L564 69L563 68M617 68L618 69L617 68M619 69L620 70L619 69z"/>
<path style="fill:#ffffff; stroke:none;" d="M1123 69L1151 145L1160.34 172L1146 213C1153.83 213 1173.99 216.654 1180.3 211.972C1183.23 209.798 1184.2 204.246 1185.42 201C1188.68 192.364 1191.73 183.649 1194.95 175C1203.76 151.373 1212.24 127.627 1221.05 104C1225.26 92.6987 1231.35 80.6839 1234 69C1226.31 69 1206.79 65.4473 1200.56 70.0278C1196.6 72.9418 1195.17 83.4386 1193.86 88C1189.33 103.731 1183.92 119.104 1180 135C1172.47 120.71 1168.77 103.322 1163.67 88C1162.25 83.7583 1160.89 72.7353 1157.4 70.0278C1151.34 65.3185 1130.65 69 1123 69z"/>
<path style="fill:#9f9f9f; stroke:none;" d="M562 70L563 71L562 70z"/>
<path style="fill:#2d2d2d; stroke:none;" d="M620 70L621 71L620 70z"/>
<path style="fill:#9f9f9f; stroke:none;" d="M621 70L622 71L621 70z"/>
<path style="fill:#5e5e5e; stroke:none;" d="M562 71L563 72L562 71M622 71L623 72L622 71M119.333 72.6667L119.667 73.3333L119.333 72.6667z"/>
<path style="fill:#2d2d2d; stroke:none;" d="M562 72L562 75L563 75L562 72M623 72L624 73L623 72z"/>
<path style="fill:#9f9f9f; stroke:none;" d="M625 73L626 74L625 73z"/>
<path style="fill:#5e5e5e; stroke:none;" d="M1159 73L1160 74L1159 73z"/>
<path style="fill:#9f9f9f; stroke:none;" d="M1232 73L1233 74L1232 73z"/>
<path style="fill:#2d2d2d; stroke:none;" d="M119 74L120 75L119 74z"/>
<path style="fill:#5e5e5e; stroke:none;" d="M626 74L627 75L626 74z"/>
<path style="fill:#2d2d2d; stroke:none;" d="M717 74L717 93L718 93L717 74z"/>
<path style="fill:#9f9f9f; stroke:none;" d="M1159.33 74.6667L1159.67 75.3333L1159.33 74.6667z"/>
<path style="fill:#5e5e5e; stroke:none;" d="M562 75L563 76L562 75z"/>
<path style="fill:#9f9f9f; stroke:none;" d="M1231 75L1232 76L1231 75M118.333 76.6667L118.667 77.3333L118.333 76.6667z"/>
<path style="fill:#2d2d2d; stroke:none;" d="M514 76L515 77L514 76z"/>
<path style="fill:#9f9f9f; stroke:none;" d="M562 76L563 77L562 76z"/>
<path style="fill:#2d2d2d; stroke:none;" d="M1160 76L1161 77L1160 76z"/>
<path style="fill:#5e5e5e; stroke:none;" d="M1231 76L1232 77L1231 76M513 77L514 78L513 77z"/>
<path style="fill:#9f9f9f; stroke:none;" d="M933 77L934 78L933 77M1160.33 77.6667L1160.67 78.3333L1160.33 77.6667z"/>
<path style="fill:#2d2d2d; stroke:none;" d="M118 78L119 79L118 78z"/>
<path style="fill:#5e5e5e; stroke:none;" d="M402 78L402 104L403 104L402 78z"/>
<path style="fill:#9f9f9f; stroke:none;" d="M512 78L513 79L512 78z"/>
<path style="fill:#2d2d2d; stroke:none;" d="M563 78L564 79L563 78M880 78L881 79L880 78z"/>
<path style="fill:#9f9f9f; stroke:none;" d="M934 78L935 79L934 78M1230 78L1231 79L1230 78M511 79L512 80L511 79M563 79L564 80L563 79z"/>
<path style="fill:#5e5e5e; stroke:none;" d="M879 79L880 80L879 79z"/>
<path style="fill:#2d2d2d; stroke:none;" d="M935 79L936 80L935 79M1161 79L1162 80L1161 79M1230 79L1231 80L1230 79z"/>
<path style="fill:#9f9f9f; stroke:none;" d="M117 80L118 81L117 80M564 80L565 81L564 80M878 80L879 81L878 80M935 80L936 81L935 80M1108 80L1110 83L1108 80M1161.33 80.6667L1161.67 81.3333L1161.33 80.6667M1229 80L1230 81L1229 80z"/>
<path style="fill:#2d2d2d; stroke:none;" d="M117 81L118 82L117 81z"/>
<path style="fill:#9f9f9f; stroke:none;" d="M286 81L287 82L286 81z"/>
<path style="fill:#2d2d2d; stroke:none;" d="M510 81L511 82L510 81z"/>
<path style="fill:#9f9f9f; stroke:none;" d="M565 81L566 82L565 81M813 81L814 82L813 81M877 81L878 82L877 81z"/>
<path style="fill:#5e5e5e; stroke:none;" d="M936 81L937 82L936 81z"/>
<path style="fill:#2d2d2d; stroke:none;" d="M1109 81L1110 82L1109 81z"/>
<path style="fill:#5e5e5e; stroke:none;" d="M1229 81L1230 82L1229 81z"/>
<path style="fill:#9f9f9f; stroke:none;" d="M116 82L117 83L116 82z"/>
<path style="fill:#5e5e5e; stroke:none;" d="M287 82L288 83L287 82M509 82L510 83L509 82z"/>
<path style="fill:#9f9f9f; stroke:none;" d="M566 82L567 83L566 82z"/>
<path style="fill:#5e5e5e; stroke:none;" d="M567 82L568 83L567 82M814 82L815 83L814 82z"/>
<path style="fill:#2d2d2d; stroke:none;" d="M1162 82L1163 83L1162 82M116 83L117 84L116 83M288 83L289 84L288 83z"/>
<path style="fill:#9f9f9f; stroke:none;" d="M508 83L509 84L508 83z"/>
<path style="fill:#2d2d2d; stroke:none;" d="M815 83L816 84L815 83z"/>
<path style="fill:#9f9f9f; stroke:none;" d="M937 83L938 84L937 83z"/>
<path style="fill:#5e5e5e; stroke:none;" d="M1110 83L1111 84L1110 83z"/>
<path style="fill:#9f9f9f; stroke:none;" d="M1162.33 83.6667L1162.67 84.3333L1162.33 83.6667M1228 83L1229 84L1228 83M115 84L116 85L115 84M288 84L289 85L288 84M507 84L508 85L507 84M815 84L816 85L815 84z"/>
<path style="fill:#2d2d2d; stroke:none;" d="M1111 84L1112 85L1111 84z"/>
<path style="fill:#5e5e5e; stroke:none;" d="M1228 84L1229 85L1228 84z"/>
<path style="fill:#2d2d2d; stroke:none;" d="M115 85L116 86L115 85M289 85L290 86L289 85M816 85L817 86L816 85z"/>
<path style="fill:#5e5e5e; stroke:none;" d="M938 85L939 86L938 85z"/>
<path style="fill:#9f9f9f; stroke:none;" d="M1111 85L1112 86L1111 85z"/>
<path style="fill:#2d2d2d; stroke:none;" d="M1163 85L1164 86L1163 85z"/>
<path style="fill:#9f9f9f; stroke:none;" d="M114 86L115 87L114 86M289 86L290 87L289 86z"/>
<path style="fill:#2d2d2d; stroke:none;" d="M506 86L507 87L506 86z"/>
<path style="fill:#9f9f9f; stroke:none;" d="M816 86L817 87L816 86z"/>
<path style="fill:#5e5e5e; stroke:none;" d="M1112 86L1113 87L1112 86z"/>
<path style="fill:#9f9f9f; stroke:none;" d="M1163.33 86.6667L1163.67 87.3333L1163.33 86.6667M1227 86L1228 87L1227 86z"/>
<path style="fill:#2d2d2d; stroke:none;" d="M290 87L291 88L290 87z"/>
<path style="fill:#5e5e5e; stroke:none;" d="M505 87L506 88L505 87z"/>
<path style="fill:#2d2d2d; stroke:none;" d="M817 87L818 88L817 87M939 87L940 88L939 87M1227 87L1228 88L1227 87M113 88L114 89L113 88z"/>
<path style="fill:#9f9f9f; stroke:none;" d="M290 88L291 89L290 88z"/>
<path style="fill:#5e5e5e; stroke:none;" d="M504 88L505 89L504 88z"/>
<path style="fill:#9f9f9f; stroke:none;" d="M817 88L818 89L817 88M939 88L940 89L939 88M1063 88L1064 89L1063 88z"/>
<path style="fill:#5e5e5e; stroke:none;" d="M1064.67 88.3333L1065.33 88.6667L1064.67 88.3333z"/>
<path style="fill:#2d2d2d; stroke:none;" d="M1066 88L1067 89L1066 88z"/>
<path style="fill:#010101; stroke:none;" d="M1049 109L1087 109C1085.82 82.0375 1050.21 82.5624 1049 109z"/>
<path style="fill:#2d2d2d; stroke:none;" d="M1071 88L1072 89L1071 88z"/>
<path style="fill:#5e5e5e; stroke:none;" d="M1072.67 88.3333L1073.33 88.6667L1072.67 88.3333z"/>
<path style="fill:#9f9f9f; stroke:none;" d="M1074 88L1075 89L1074 88z"/>
<path style="fill:#5e5e5e; stroke:none;" d="M1113 88L1114 89L1113 88z"/>
<path style="fill:#2d2d2d; stroke:none;" d="M1164 88L1165 89L1164 88z"/>
<path style="fill:#5e5e5e; stroke:none;" d="M112 89L113 90L112 89z"/>
<path style="fill:#9f9f9f; stroke:none;" d="M503 89L504 90L503 89M1060 89L1061 90L1060 89z"/>
<path style="fill:#2d2d2d; stroke:none;" d="M1061 89L1062 90L1061 89M1076 89L1077 90L1076 89z"/>
<path style="fill:#9f9f9f; stroke:none;" d="M1077 89L1078 90L1077 89M1164.33 89.6667L1164.67 90.3333L1164.33 89.6667M1226 89L1227 90L1226 89z"/>
<path style="fill:#2d2d2d; stroke:none;" d="M53 90L53 91L57 91L53 90z"/>
<path style="fill:#9f9f9f; stroke:none;" d="M111 90L112 91L111 90M228.667 90.3333L229.333 90.6667L228.667 90.3333z"/>
<path style="fill:#5e5e5e; stroke:none;" d="M230.667 90.3333L231.333 90.6667L230.667 90.3333z"/>
<path style="fill:#2d2d2d; stroke:none;" d="M232.667 90.3333L233.333 90.6667L232.667 90.3333M239.667 90.3333L240.333 90.6667L239.667 90.3333z"/>
<path style="fill:#5e5e5e; stroke:none;" d="M241.667 90.3333L242.333 90.6667L241.667 90.3333z"/>
<path style="fill:#9f9f9f; stroke:none;" d="M243 90L243 91L246 91L243 90z"/>
<path style="fill:#5e5e5e; stroke:none;" d="M291 90L292 91L291 90z"/>
<path style="fill:#9f9f9f; stroke:none;" d="M502 90L503 91L502 90M755.667 90.3333L756.333 90.6667L755.667 90.3333z"/>
<path style="fill:#5e5e5e; stroke:none;" d="M757.667 90.3333L758.333 90.6667L757.667 90.3333z"/>
<path style="fill:#2d2d2d; stroke:none;" d="M759.667 90.3333L760.333 90.6667L759.667 90.3333M766.667 90.3333L767.333 90.6667L766.667 90.3333z"/>
<path style="fill:#5e5e5e; stroke:none;" d="M768.667 90.3333L769.333 90.6667L768.667 90.3333z"/>
<path style="fill:#9f9f9f; stroke:none;" d="M770 90L770 91L773 91L770 90z"/>
<path style="fill:#5e5e5e; stroke:none;" d="M818 90L819 91L818 90z"/>
<path style="fill:#2d2d2d; stroke:none;" d="M940 90L941 91L940 90z"/>
<path style="fill:#5e5e5e; stroke:none;" d="M1058 90L1059 91L1058 90z"/>
<path style="fill:#2d2d2d; stroke:none;" d="M1078 90L1079 91L1078 90z"/>
<path style="fill:#9f9f9f; stroke:none;" d="M1079 90L1080 91L1079 90M1114 90L1115 91L1114 90z"/>
<path style="fill:#2d2d2d; stroke:none;" d="M1226 90L1227 91L1226 90z"/>
<path style="fill:#9f9f9f; stroke:none;" d="M110 91L111 92L110 91M224 91L225 92L224 91z"/>
<path style="fill:#5e5e5e; stroke:none;" d="M225 91L226 92L225 91z"/>
<path style="fill:#2d2d2d; stroke:none;" d="M226 91L227 92L226 91z"/>
<path style="fill:#5e5e5e; stroke:none;" d="M248 91L249 92L248 91z"/>
<path style="fill:#9f9f9f; stroke:none;" d="M249.667 91.3333L250.333 91.6667L249.667 91.3333M291 91L292 92L291 91M363 91L364 92L363 91z"/>
<path style="fill:#5e5e5e; stroke:none;" d="M364.667 91.3333L365.333 91.6667L364.667 91.3333z"/>
<path style="fill:#2d2d2d; stroke:none;" d="M366.667 91.3333L367.333 91.6667L366.667 91.3333M371.667 91.3333L372.333 91.6667L371.667 91.3333z"/>
<path style="fill:#5e5e5e; stroke:none;" d="M373.667 91.3333L374.333 91.6667L373.667 91.3333z"/>
<path style="fill:#9f9f9f; stroke:none;" d="M375.667 91.3333L376.333 91.6667L375.667 91.3333z"/>
<path style="fill:#2d2d2d; stroke:none;" d="M502 91L503 92L502 91z"/>
<path style="fill:#9f9f9f; stroke:none;" d="M751 91L752 92L751 91z"/>
<path style="fill:#5e5e5e; stroke:none;" d="M752 91L753 92L752 91z"/>
<path style="fill:#2d2d2d; stroke:none;" d="M753 91L754 92L753 91z"/>
<path style="fill:#5e5e5e; stroke:none;" d="M775 91L776 92L775 91z"/>
<path style="fill:#9f9f9f; stroke:none;" d="M776.667 91.3333L777.333 91.6667L776.667 91.3333M818 91L819 92L818 91z"/>
<path style="fill:#5e5e5e; stroke:none;" d="M940 91L941 92L940 91z"/>
<path style="fill:#9f9f9f; stroke:none;" d="M1056 91L1057 92L1056 91z"/>
<path style="fill:#2d2d2d; stroke:none;" d="M1057 91L1058 92L1057 91z"/>
<path style="fill:#5e5e5e; stroke:none;" d="M1080 91L1081 92L1080 91z"/>
<path style="fill:#2d2d2d; stroke:none;" d="M1165 91L1166 92L1165 91z"/>
<path style="fill:#9f9f9f; stroke:none;" d="M1225 91L1226 92L1225 91M109 92L110 93L109 92M220 92L221 93L220 92z"/>
<path style="fill:#5e5e5e; stroke:none;" d="M221 92L222 93L221 92z"/>
<path style="fill:#2d2d2d; stroke:none;" d="M251 92L252 93L251 92z"/>
<path style="fill:#9f9f9f; stroke:none;" d="M252 92L253 93L252 92M359 92L360 93L359 92z"/>
<path style="fill:#5e5e5e; stroke:none;" d="M360 92L361 93L360 92z"/>
<path style="fill:#2d2d2d; stroke:none;" d="M378 92L379 93L378 92z"/>
<path style="fill:#9f9f9f; stroke:none;" d="M379 92L380 93L379 92z"/>
<path style="fill:#2d2d2d; stroke:none;" d="M501 92L502 93L501 92z"/>
<path style="fill:#9f9f9f; stroke:none;" d="M747 92L748 93L747 92z"/>
<path style="fill:#5e5e5e; stroke:none;" d="M748 92L749 93L748 92z"/>
<path style="fill:#2d2d2d; stroke:none;" d="M778 92L779 93L778 92z"/>
<path style="fill:#9f9f9f; stroke:none;" d="M779 92L780 93L779 92M940 92L941 93L940 92M1055 92L1056 93L1055 92z"/>
<path style="fill:#2d2d2d; stroke:none;" d="M1081 92L1082 93L1081 92z"/>
<path style="fill:#5e5e5e; stroke:none;" d="M1115 92L1116 93L1115 92z"/>
<path style="fill:#9f9f9f; stroke:none;" d="M1165.33 92.6667L1165.67 93.3333L1165.33 92.6667z"/>
<path style="fill:#5e5e5e; stroke:none;" d="M1225 92L1226 93L1225 92z"/>
<path style="fill:#9f9f9f; stroke:none;" d="M108 93L109 94L108 93M217 93L218 94L217 93z"/>
<path style="fill:#2d2d2d; stroke:none;" d="M218 93L219 94L218 93z"/>
<path style="fill:#5e5e5e; stroke:none;" d="M254 93L255 94L254 93z"/>
<path style="fill:#9f9f9f; stroke:none;" d="M357 93L358 94L357 93z"/>
<path style="fill:#2d2d2d; stroke:none;" d="M358 93L359 94L358 93M381 93L382 94L381 93z"/>
<path style="fill:#9f9f9f; stroke:none;" d="M382 93L383 94L382 93z"/>
<path style="fill:#5e5e5e; stroke:none;" d="M500 93L501 94L500 93z"/>
<path style="fill:#9f9f9f; stroke:none;" d="M653 93L653 97L654 97L653 93M744 93L745 94L744 93z"/>
<path style="fill:#2d2d2d; stroke:none;" d="M745 93L746 94L745 93z"/>
<path style="fill:#5e5e5e; stroke:none;" d="M781 93L782 94L781 93z"/>
<path style="fill:#9f9f9f; stroke:none;" d="M1054 93L1055 94L1054 93z"/>
<path style="fill:#5e5e5e; stroke:none;" d="M1082 93L1083 94L1082 93z"/>
<path style="fill:#9f9f9f; stroke:none;" d="M1115 93L1116 94L1115 93z"/>
<path style="fill:#5e5e5e; stroke:none;" d="M107 94L108 95L107 94z"/>
<path style="fill:#9f9f9f; stroke:none;" d="M214 94L215 95L214 94z"/>
<path style="fill:#2d2d2d; stroke:none;" d="M215 94L216 95L215 94z"/>
<path style="fill:#9f9f9f; stroke:none;" d="M256 94L257 95L256 94z"/>
<path style="fill:#5e5e5e; stroke:none;" d="M292 94L293 95L292 94z"/>
<path style="fill:#9f9f9f; stroke:none;" d="M355 94L356 95L355 94z"/>
<path style="fill:#2d2d2d; stroke:none;" d="M356 94L357 95L356 94z"/>
<path style="fill:#9f9f9f; stroke:none;" d="M384 94L385 95L384 94M499 94L500 95L499 94M741 94L742 95L741 94z"/>
<path style="fill:#2d2d2d; stroke:none;" d="M742 94L743 95L742 94z"/>
<path style="fill:#9f9f9f; stroke:none;" d="M783 94L784 95L783 94z"/>
<path style="fill:#5e5e5e; stroke:none;" d="M819 94L820 95L819 94z"/>
<path style="fill:#9f9f9f; stroke:none;" d="M891 94L891 95L897 95L891 94M1053 94L1054 95L1053 94M1083 94L1084 95L1083 94z"/>
<path style="fill:#2d2d2d; stroke:none;" d="M1166 94L1167 95L1166 94z"/>
<path style="fill:#9f9f9f; stroke:none;" d="M1224 94L1225 95L1224 94M105 95L106 96L105 95M211 95L212 96L211 95z"/>
<path style="fill:#5e5e5e; stroke:none;" d="M212 95L213 96L212 95z"/>
<path style="fill:#9f9f9f; stroke:none;" d="M257 95L258 96L257 95M292 95L292 98L293 98L292 95z"/>
<path style="fill:#5e5e5e; stroke:none;" d="M354 95L355 96L354 95M386 95L387 96L386 95z"/>
<path style="fill:#9f9f9f; stroke:none;" d="M498 95L499 96L498 95M738 95L739 96L738 95z"/>
<path style="fill:#5e5e5e; stroke:none;" d="M739 95L740 96L739 95z"/>
<path style="fill:#9f9f9f; stroke:none;" d="M784 95L785 96L784 95M819 95L819 98L820 98L819 95M886.667 95.3333L887.333 95.6667L886.667 95.3333z"/>
<path style="fill:#2d2d2d; stroke:none;" d="M888 95L889 96L888 95M899 95L900 96L899 95z"/>
<path style="fill:#9f9f9f; stroke:none;" d="M900 95L901 96L900 95z"/>
<path style="fill:#2d2d2d; stroke:none;" d="M941 95L942 96L941 95z"/>
<path style="fill:#9f9f9f; stroke:none;" d="M1052 95L1053 96L1052 95M1116.33 95.6667L1116.67 96.3333L1116.33 95.6667M1166.33 95.6667L1166.67 96.3333L1166.33 95.6667z"/>
<path style="fill:#5e5e5e; stroke:none;" d="M1224 95L1225 96L1224 95M104 96L105 97L104 96z"/>
<path style="fill:#9f9f9f; stroke:none;" d="M209 96L210 97L209 96z"/>
<path style="fill:#2d2d2d; stroke:none;" d="M210 96L211 97L210 96z"/>
<path style="fill:#9f9f9f; stroke:none;" d="M258 96L259 97L258 96z"/>
<path style="fill:#2d2d2d; stroke:none;" d="M353 96L354 97L353 96z"/>
<path style="fill:#9f9f9f; stroke:none;" d="M388 96L389 97L388 96M736 96L737 97L736 96z"/>
<path style="fill:#2d2d2d; stroke:none;" d="M737 96L738 97L737 96z"/>
<path style="fill:#9f9f9f; stroke:none;" d="M785 96L786 97L785 96M884 96L885 97L884 96z"/>
<path style="fill:#2d2d2d; stroke:none;" d="M885 96L886 97L885 96z"/>
<path style="fill:#5e5e5e; stroke:none;" d="M902 96L903 97L902 96M941 96L942 97L941 96z"/>
<path style="fill:#2d2d2d; stroke:none;" d="M1052 96L1053 97L1052 96z"/>
<path style="fill:#5e5e5e; stroke:none;" d="M102 97L103 98L102 97z"/>
<path style="fill:#2d2d2d; stroke:none;" d="M258 97L259 98L258 97M352 97L353 98L352 97M389 97L390 98L389 97M497 97L498 98L497 97M785 97L786 98L785 97z"/>
<path style="fill:#5e5e5e; stroke:none;" d="M882 97L883 98L882 97z"/>
<path style="fill:#9f9f9f; stroke:none;" d="M904 97L905 98L904 97M941 97L941 101L942 101L941 97M1051 97L1052 98L1051 97z"/>
<path style="fill:#2d2d2d; stroke:none;" d="M1167 97L1168 98L1167 97z"/>
<path style="fill:#9f9f9f; stroke:none;" d="M1223 97L1224 98L1223 97M100 98L101 99L100 98z"/>
<path style="fill:#2d2d2d; stroke:none;" d="M351 98L352 99L351 98z"/>
<path style="fill:#9f9f9f; stroke:none;" d="M391 98L392 99L391 98z"/>
<path style="fill:#5e5e5e; stroke:none;" d="M496 98L497 99L496 98z"/>
<path style="fill:#9f9f9f; stroke:none;" d="M880 98L881 99L880 98M905 98L906 99L905 98z"/>
<path style="fill:#5e5e5e; stroke:none;" d="M1117 98L1118 99L1117 98z"/>
<path style="fill:#9f9f9f; stroke:none;" d="M1167.33 98.6667L1167.67 99.3333L1167.33 98.6667z"/>
<path style="fill:#2d2d2d; stroke:none;" d="M1223 98L1224 99L1223 98z"/>
<path style="fill:#9f9f9f; stroke:none;" d="M102 99L103 100L102 99z"/>
<path style="fill:#5e5e5e; stroke:none;" d="M103 99L104 100L103 99z"/>
<path style="fill:#2d2d2d; stroke:none;" d="M350 99L351 100L350 99z"/>
<path style="fill:#5e5e5e; stroke:none;" d="M392 99L393 100L392 99z"/>
<path style="fill:#9f9f9f; stroke:none;" d="M495 99L496 100L495 99M878 99L879 100L878 99z"/>
<path style="fill:#2d2d2d; stroke:none;" d="M879 99L880 100L879 99M905 99L906 100L905 99z"/>
<path style="fill:#9f9f9f; stroke:none;" d="M1050 99L1051 100L1050 99M1117 99L1118 100L1117 99M105 100L106 101L105 100z"/>
<path style="fill:#5e5e5e; stroke:none;" d="M106 100L107 101L106 100M349 100L350 101L349 100z"/>
<path style="fill:#2d2d2d; stroke:none;" d="M393 100L394 101L393 100z"/>
<path style="fill:#9f9f9f; stroke:none;" d="M494 100L495 101L494 100z"/>
<path style="fill:#5e5e5e; stroke:none;" d="M877 100L878 101L877 100z"/>
<path style="fill:#9f9f9f; stroke:none;" d="M906 100L907 101L906 100z"/>
<path style="fill:#2d2d2d; stroke:none;" d="M1050 100L1051 101L1050 100M1168 100L1169 101L1168 100z"/>
<path style="fill:#5e5e5e; stroke:none;" d="M1222 100L1223 101L1222 100z"/>
<path style="fill:#9f9f9f; stroke:none;" d="M348 101L349 102L348 101M395 101L396 102L395 101M1049 101L1050 102L1049 101M1168.33 101.667L1168.67 102.333L1168.33 101.667z"/>
<path style="fill:#2d2d2d; stroke:none;" d="M293 102L293 175L294 175L294 125L293 102M348 102L349 103L348 102z"/>
<path style="fill:#9f9f9f; stroke:none;" d="M396 102L397 103L396 102z"/>
<path style="fill:#2d2d2d; stroke:none;" d="M493 102L494 103L493 102M820 102L820 175L821 175L821 125L820 102z"/>
<path style="fill:#5e5e5e; stroke:none;" d="M1049 102L1050 103L1049 102z"/>
<path style="fill:#2d2d2d; stroke:none;" d="M1118 102L1119 103L1118 102z"/>
<path style="fill:#9f9f9f; stroke:none;" d="M1221 102L1222 103L1221 102M347 103L348 104L347 103M397 103L398 104L397 103z"/>
<path style="fill:#5e5e5e; stroke:none;" d="M492 103L493 104L492 103z"/>
<path style="fill:#2d2d2d; stroke:none;" d="M1049 103L1050 104L1049 103z"/>
<path style="fill:#5e5e5e; stroke:none;" d="M1118 103L1119 104L1118 103z"/>
<path style="fill:#2d2d2d; stroke:none;" d="M1169 103L1170 104L1169 103z"/>
<path style="fill:#5e5e5e; stroke:none;" d="M1221 103L1222 104L1221 103z"/>
<path style="fill:#9f9f9f; stroke:none;" d="M491 104L492 105L491 104M1118.33 104.667L1118.67 105.333L1118.33 104.667M1169.33 104.667L1169.67 105.333L1169.33 104.667M346 105L347 106L346 105M490 105L491 106L490 105M1048 105L1048 108L1049 108L1048 105M1220 105L1221 106L1220 105z"/>
<path style="fill:#2d2d2d; stroke:none;" d="M346 106L347 107L346 106z"/>
<path style="fill:#9f9f9f; stroke:none;" d="M453 106L454 107L453 106z"/>
<path style="fill:#2d2d2d; stroke:none;" d="M1170 106L1171 107L1170 106M1220 106L1221 107L1220 106z"/>
<path style="fill:#9f9f9f; stroke:none;" d="M345 107L346 108L345 107z"/>
<path style="fill:#5e5e5e; stroke:none;" d="M452 107L453 108L452 107z"/>
<path style="fill:#2d2d2d; stroke:none;" d="M489 107L490 108L489 107z"/>
<path style="fill:#9f9f9f; stroke:none;" d="M538 107L539 108L538 107M628.333 107.667L628.667 108.333L628.333 107.667M1170.33 107.667L1170.67 108.333L1170.33 107.667z"/>
<path style="fill:#5e5e5e; stroke:none;" d="M345 108L346 109L345 108z"/>
<path style="fill:#2d2d2d; stroke:none;" d="M451 108L452 109L451 108z"/>
<path style="fill:#5e5e5e; stroke:none;" d="M488 108L489 109L488 108M539 108L540 109L539 108z"/>
<path style="fill:#9f9f9f; stroke:none;" d="M540 108L541 109L540 108z"/>
<path style="fill:#5e5e5e; stroke:none;" d="M1048 108L1049 109L1048 108z"/>
<path style="fill:#9f9f9f; stroke:none;" d="M1219 108L1220 109L1219 108M451 109L452 110L451 109M487 109L488 110L487 109M541 109L542 110L541 109M629 109L630 110L629 109M1049 109L1049 110L1053 110L1049 109z"/>
<path style="fill:#2d2d2d; stroke:none;" d="M1119 109L1120 110L1119 109M1171 109L1172 110L1171 109M1219 109L1220 110L1219 109z"/>
<path style="fill:#9f9f9f; stroke:none;" d="M121 110L122 111L121 110M344.333 110.667L344.667 111.333L344.333 110.667M450 110L451 111L450 110M486 110L487 111L486 110z"/>
<path style="fill:#5e5e5e; stroke:none;" d="M542 110L543 111L542 110z"/>
<path style="fill:#2d2d2d; stroke:none;" d="M630 110L631 111L630 110z"/>
<path style="fill:#5e5e5e; stroke:none;" d="M1119 110L1119 113L1120 113L1119 110z"/>
<path style="fill:#9f9f9f; stroke:none;" d="M1171.33 110.667L1171.67 111.333L1171.33 110.667M1218 110L1219 111L1218 110M122 111L123 112L122 111M544 111L545 112L544 111z"/>
<path style="fill:#5e5e5e; stroke:none;" d="M1218 111L1219 112L1218 111M123 112L124 113L123 112z"/>
<path style="fill:#2d2d2d; stroke:none;" d="M344 112L345 113L344 112M485 112L486 113L485 112M545 112L546 113L545 112z"/>
<path style="fill:#9f9f9f; stroke:none;" d="M546 112L547 113L546 112z"/>
<path style="fill:#5e5e5e; stroke:none;" d="M631 112L632 113L631 112z"/>
<path style="fill:#2d2d2d; stroke:none;" d="M1172 112L1173 113L1172 112z"/>
<path style="fill:#9f9f9f; stroke:none;" d="M123 113L124 114L123 113z"/>
<path style="fill:#5e5e5e; stroke:none;" d="M484 113L485 114L484 113z"/>
<path style="fill:#2d2d2d; stroke:none;" d="M547 113L548 114L547 113z"/>
<path style="fill:#9f9f9f; stroke:none;" d="M548 113L549 114L548 113M1119 113L1119 129L1120 129L1119 113M1172.33 113.667L1172.67 114.333L1172.33 113.667M1217 113L1218 114L1217 113z"/>
<path style="fill:#5e5e5e; stroke:none;" d="M124 114L125 115L124 114M483 114L484 115L483 114z"/>
<path style="fill:#2d2d2d; stroke:none;" d="M549 114L550 115L549 114z"/>
<path style="fill:#9f9f9f; stroke:none;" d="M550 114L551 115L550 114z"/>
<path style="fill:#5e5e5e; stroke:none;" d="M632 114L633 115L632 114M1217 114L1218 115L1217 114z"/>
<path style="fill:#010101; stroke:none;" d="M53 115L53 149C62.9066 149 76.0671 151.181 84.9846 145.911C94.2068 140.462 95.4287 124.081 85.9568 118.228C77.0668 112.736 62.9679 115 53 115z"/>
<path style="fill:#2d2d2d; stroke:none;" d="M76.6667 115.333L77.3333 115.667L76.6667 115.333z"/>
<path style="fill:#5e5e5e; stroke:none;" d="M78 115L79 116L78 115z"/>
<path style="fill:#9f9f9f; stroke:none;" d="M79.6667 115.333L80.3333 115.667L79.6667 115.333M343 115L343 118L344 118L343 115M482 115L483 116L482 115z"/>
<path style="fill:#2d2d2d; stroke:none;" d="M551 115L552 116L551 115z"/>
<path style="fill:#9f9f9f; stroke:none;" d="M552 115L553 116L552 115z"/>
<path style="fill:#2d2d2d; stroke:none;" d="M1173 115L1174 116L1173 115M82 116L83 117L82 116z"/>
<path style="fill:#9f9f9f; stroke:none;" d="M83 116L84 117L83 116M125 116L126 117L125 116z"/>
<path style="fill:#5e5e5e; stroke:none;" d="M483 116L484 117L483 116M554 116L555 117L554 116z"/>
<path style="fill:#9f9f9f; stroke:none;" d="M555 116L556 117L555 116z"/>
<path style="fill:#5e5e5e; stroke:none;" d="M633 116L634 117L633 116z"/>
<path style="fill:#9f9f9f; stroke:none;" d="M1173.33 116.667L1173.67 117.333L1173.33 116.667M1216 116L1217 117L1216 116M85 117L86 118L85 117z"/>
<path style="fill:#2d2d2d; stroke:none;" d="M556 117L557 118L556 117z"/>
<path style="fill:#5e5e5e; stroke:none;" d="M557 117L558 118L557 117z"/>
<path style="fill:#9f9f9f; stroke:none;" d="M558 117L559 118L558 117M633 117L634 118L633 117z"/>
<path style="fill:#2d2d2d; stroke:none;" d="M1216 117L1217 118L1216 117M86 118L87 119L86 118z"/>
<path style="fill:#5e5e5e; stroke:none;" d="M126 118L127 119L126 118M343.333 118.667L343.667 119.333L343.333 118.667z"/>
<path style="fill:#9f9f9f; stroke:none;" d="M484 118L485 119L484 118z"/>
<path style="fill:#5e5e5e; stroke:none;" d="M560 118L561 119L560 118z"/>
<path style="fill:#9f9f9f; stroke:none;" d="M561 118L562 119L561 118z"/>
<path style="fill:#2d2d2d; stroke:none;" d="M1174 118L1175 119L1174 118z"/>
<path style="fill:#9f9f9f; stroke:none;" d="M88 119L89 120L88 119M126 119L127 120L126 119z"/>
<path style="fill:#2d2d2d; stroke:none;" d="M485 119L486 120L485 119z"/>
<path style="fill:#5e5e5e; stroke:none;" d="M563 119L564 120L563 119z"/>
<path style="fill:#9f9f9f; stroke:none;" d="M564 119L565 120L564 119z"/>
<path style="fill:#5e5e5e; stroke:none;" d="M634 119L635 120L634 119z"/>
<path style="fill:#9f9f9f; stroke:none;" d="M1174.33 119.667L1174.67 120.333L1174.33 119.667M1215 119L1216 120L1215 119M89 120L90 121L89 120z"/>
<path style="fill:#2d2d2d; stroke:none;" d="M127 120L128 121L127 120M343 120L343 126L344 126L343 120z"/>
<path style="fill:#5e5e5e; stroke:none;" d="M567 120L568 121L567 120z"/>
<path style="fill:#9f9f9f; stroke:none;" d="M568.667 120.333L569.333 120.667L568.667 120.333M634 120L635 121L634 120z"/>
<path style="fill:#2d2d2d; stroke:none;" d="M1215 120L1216 121L1215 120z"/>
<path style="fill:#9f9f9f; stroke:none;" d="M90.3333 121.667L90.6667 122.333L90.3333 121.667z"/>
<path style="fill:#5e5e5e; stroke:none;" d="M127 121L128 122L127 121z"/>
<path style="fill:#9f9f9f; stroke:none;" d="M486 121L487 122L486 121z"/>
<path style="fill:#2d2d2d; stroke:none;" d="M571 121L572 122L571 121z"/>
<path style="fill:#5e5e5e; stroke:none;" d="M572 121L573 122L572 121z"/>
<path style="fill:#9f9f9f; stroke:none;" d="M573 121L574 122L573 121z"/>
<path style="fill:#2d2d2d; stroke:none;" d="M1175 121L1176 122L1175 121z"/>
<path style="fill:#9f9f9f; stroke:none;" d="M1214 121L1215 122L1214 121M127 122L128 123L127 122z"/>
<path style="fill:#2d2d2d; stroke:none;" d="M487 122L488 123L487 122M575 122L576 123L575 122z"/>
<path style="fill:#5e5e5e; stroke:none;" d="M576 122L577 123L576 122z"/>
<path style="fill:#9f9f9f; stroke:none;" d="M577.667 122.333L578.333 122.667L577.667 122.333M1175.33 122.667L1175.67 123.333L1175.33 122.667z"/>
<path style="fill:#5e5e5e; stroke:none;" d="M1214 122L1215 123L1214 122z"/>
<path style="fill:#2d2d2d; stroke:none;" d="M580 123L581 124L580 123z"/>
<path style="fill:#9f9f9f; stroke:none;" d="M581.667 123.333L582.333 123.667L581.667 123.333z"/>
<path style="fill:#2d2d2d; stroke:none;" d="M635 123L636 124L635 123z"/>
<path style="fill:#9f9f9f; stroke:none;" d="M488 124L489 125L488 124z"/>
<path style="fill:#2d2d2d; stroke:none;" d="M584 124L585 125L584 124z"/>
<path style="fill:#9f9f9f; stroke:none;" d="M585.667 124.333L586.333 124.667L585.667 124.333z"/>
<path style="fill:#5e5e5e; stroke:none;" d="M635 124L636 125L635 124z"/>
<path style="fill:#2d2d2d; stroke:none;" d="M1176 124L1177 125L1176 124z"/>
<path style="fill:#9f9f9f; stroke:none;" d="M1213 124L1214 125L1213 124z"/>
<path style="fill:#5e5e5e; stroke:none;" d="M128.333 125.667L128.667 126.333L128.333 125.667z"/>
<path style="fill:#9f9f9f; stroke:none;" d="M259.667 125.333L260.333 125.667L259.667 125.333z"/>
<path style="fill:#2d2d2d; stroke:none;" d="M489 125L490 126L489 125z"/>
<path style="fill:#5e5e5e; stroke:none;" d="M588 125L589 126L588 125z"/>
<path style="fill:#9f9f9f; stroke:none;" d="M589 125L590 126L589 125M635 125L635 128L636 128L635 125M786.667 125.333L787.333 125.667L786.667 125.333M1176.33 125.667L1176.67 126.333L1176.33 125.667z"/>
<path style="fill:#5e5e5e; stroke:none;" d="M1213 125L1214 126L1213 125z"/>
<path style="fill:#9f9f9f; stroke:none;" d="M250 126L250 127L253 127L250 126z"/>
<path style="fill:#5e5e5e; stroke:none;" d="M253 126L254 127L253 126z"/>
<path style="fill:#2d2d2d; stroke:none;" d="M254.667 126.333L255.333 126.667L254.667 126.333z"/>
<path style="fill:#010101; stroke:none;" d="M260 126C254.353 126.446 248.542 127.013 243 128.211C240.245 128.807 237.431 129.482 235.019 131.005C214.003 144.273 247.753 166.167 258.972 147.671C262.07 142.564 260 131.847 260 126z"/>
<path style="fill:#2d2d2d; stroke:none;" d="M260 126L260 130L261 130L260 126z"/>
<path style="fill:#5e5e5e; stroke:none;" d="M343 126L343 129L344 129L343 126z"/>
<path style="fill:#2d2d2d; stroke:none;" d="M590 126L591 127L590 126z"/>
<path style="fill:#9f9f9f; stroke:none;" d="M591 126L592 127L591 126M777 126L777 127L780 127L777 126z"/>
<path style="fill:#5e5e5e; stroke:none;" d="M780 126L781 127L780 126z"/>
<path style="fill:#2d2d2d; stroke:none;" d="M781.667 126.333L782.333 126.667L781.667 126.333z"/>
<path style="fill:#010101; stroke:none;" d="M787 126C781.353 126.446 775.542 127.013 770 128.211C767.245 128.807 764.431 129.482 762.018 131.005C741.003 144.273 774.753 166.167 785.972 147.671C789.07 142.564 787 131.847 787 126z"/>
<path style="fill:#2d2d2d; stroke:none;" d="M787 126L787 130L788 130L787 126z"/>
<path style="fill:#9f9f9f; stroke:none;" d="M128 127L128 132L129 132L128 127M243.667 127.333L244.333 127.667L243.667 127.333z"/>
<path style="fill:#5e5e5e; stroke:none;" d="M245 127L246 128L245 127z"/>
<path style="fill:#2d2d2d; stroke:none;" d="M246 127L247 128L246 127z"/>
<path style="fill:#9f9f9f; stroke:none;" d="M490 127L491 128L490 127z"/>
<path style="fill:#2d2d2d; stroke:none;" d="M592 127L593 128L592 127z"/>
<path style="fill:#9f9f9f; stroke:none;" d="M593 127L594 128L593 127M770.667 127.333L771.333 127.667L770.667 127.333z"/>
<path style="fill:#5e5e5e; stroke:none;" d="M772 127L773 128L772 127z"/>
<path style="fill:#2d2d2d; stroke:none;" d="M773 127L774 128L773 127M1177 127L1178 128L1177 127z"/>
<path style="fill:#9f9f9f; stroke:none;" d="M1212 127L1213 128L1212 127M239 128L240 129L239 128z"/>
<path style="fill:#5e5e5e; stroke:none;" d="M240 128L241 129L240 128z"/>
<path style="fill:#2d2d2d; stroke:none;" d="M241 128L242 129L241 128M491 128L492 129L491 128M594 128L595 129L594 128z"/>
<path style="fill:#9f9f9f; stroke:none;" d="M766 128L767 129L766 128z"/>
<path style="fill:#5e5e5e; stroke:none;" d="M767 128L768 129L767 128z"/>
<path style="fill:#2d2d2d; stroke:none;" d="M768 128L769 129L768 128z"/>
<path style="fill:#9f9f9f; stroke:none;" d="M1177.33 128.667L1177.67 129.333L1177.33 128.667z"/>
<path style="fill:#2d2d2d; stroke:none;" d="M1212 128L1213 129L1212 128z"/>
<path style="fill:#5e5e5e; stroke:none;" d="M237 129L238 130L237 129z"/>
<path style="fill:#9f9f9f; stroke:none;" d="M343 129L343 132L344 132L343 129M491 129L492 130L491 129M596 129L597 130L596 129z"/>
<path style="fill:#5e5e5e; stroke:none;" d="M764 129L765 130L764 129z"/>
<path style="fill:#9f9f9f; stroke:none;" d="M1048 129L1048 132L1049 132L1048 129M1211 129L1212 130L1211 129z"/>
<path style="fill:#5e5e5e; stroke:none;" d="M235 130L236 131L235 130z"/>
<path style="fill:#2d2d2d; stroke:none;" d="M454 130L455 131L454 130z"/>
<path style="fill:#9f9f9f; stroke:none;" d="M455 130L456 131L455 130z"/>
<path style="fill:#5e5e5e; stroke:none;" d="M492 130L493 131L492 130z"/>
<path style="fill:#9f9f9f; stroke:none;" d="M597 130L598 131L597 130z"/>
<path style="fill:#5e5e5e; stroke:none;" d="M762 130L763 131L762 130z"/>
<path style="fill:#2d2d2d; stroke:none;" d="M1178 130L1179 131L1178 130z"/>
<path style="fill:#5e5e5e; stroke:none;" d="M1211 130L1212 131L1211 130M233 131L234 132L233 131z"/>
<path style="fill:#9f9f9f; stroke:none;" d="M453 131L454 132L453 131z"/>
<path style="fill:#2d2d2d; stroke:none;" d="M493 131L494 132L493 131z"/>
<path style="fill:#9f9f9f; stroke:none;" d="M598 131L599 132L598 131z"/>
<path style="fill:#5e5e5e; stroke:none;" d="M760 131L761 132L760 131z"/>
<path style="fill:#9f9f9f; stroke:none;" d="M1178.33 131.667L1178.67 132.333L1178.33 131.667z"/>
<path style="fill:#5e5e5e; stroke:none;" d="M232 132L233 133L232 132z"/>
<path style="fill:#9f9f9f; stroke:none;" d="M452 132L453 133L452 132z"/>
<path style="fill:#5e5e5e; stroke:none;" d="M456 132L457 133L456 132z"/>
<path style="fill:#9f9f9f; stroke:none;" d="M493 132L494 133L493 132z"/>
<path style="fill:#5e5e5e; stroke:none;" d="M598 132L599 133L598 132M759 132L760 133L759 132M1180 132L1181 133L1180 132z"/>
<path style="fill:#9f9f9f; stroke:none;" d="M1210 132L1211 133L1210 132M128 133L128 138L129 138L128 133z"/>
<path style="fill:#5e5e5e; stroke:none;" d="M231 133L232 134L231 133z"/>
<path style="fill:#2d2d2d; stroke:none;" d="M344 133L345 134L344 133M452 133L453 134L452 133z"/>
<path style="fill:#9f9f9f; stroke:none;" d="M457 133L458 134L457 133z"/>
<path style="fill:#5e5e5e; stroke:none;" d="M494 133L495 134L494 133M758 133L759 134L758 133z"/>
<path style="fill:#2d2d2d; stroke:none;" d="M1179 133L1180 134L1179 133z"/>
<path style="fill:#9f9f9f; stroke:none;" d="M1180 133L1181 134L1180 133z"/>
<path style="fill:#5e5e5e; stroke:none;" d="M1210 133L1211 134L1210 133z"/>
<path style="fill:#9f9f9f; stroke:none;" d="M230 134L231 135L230 134z"/>
<path style="fill:#5e5e5e; stroke:none;" d="M344 134L345 135L344 134M451 134L452 135L451 134z"/>
<path style="fill:#2d2d2d; stroke:none;" d="M457 134L458 135L457 134M495 134L496 135L495 134z"/>
<path style="fill:#9f9f9f; stroke:none;" d="M757 134L758 135L757 134z"/>
<path style="fill:#2d2d2d; stroke:none;" d="M1049 134L1050 135L1049 134z"/>
<path style="fill:#9f9f9f; stroke:none;" d="M1179 134L1180 135L1179 134M344 135L345 136L344 135M450 135L451 136L450 135M495 135L496 136L495 135M635 135L635 139L636 139L635 135z"/>
<path style="fill:#5e5e5e; stroke:none;" d="M1049 135L1050 136L1049 135z"/>
<path style="fill:#9f9f9f; stroke:none;" d="M1209 135L1210 136L1209 135M229 136L230 137L229 136z"/>
<path style="fill:#5e5e5e; stroke:none;" d="M496 136L497 137L496 136z"/>
<path style="fill:#9f9f9f; stroke:none;" d="M756 136L757 137L756 136M1049 136L1050 137L1049 136z"/>
<path style="fill:#2d2d2d; stroke:none;" d="M1209 136L1210 137L1209 136M229 137L230 138L229 137M345 137L346 138L345 137M497 137L498 138L497 137M756 137L757 138L756 137z"/>
<path style="fill:#5e5e5e; stroke:none;" d="M128.333 138.667L128.667 139.333L128.333 138.667z"/>
<path style="fill:#9f9f9f; stroke:none;" d="M345 138L346 139L345 138M497 138L498 139L497 138z"/>
<path style="fill:#5e5e5e; stroke:none;" d="M1050 138L1051 139L1050 138z"/>
<path style="fill:#9f9f9f; stroke:none;" d="M1208 138L1209 139L1208 138M228 139L228 145L229 145L228 139z"/>
<path style="fill:#5e5e5e; stroke:none;" d="M498 139L499 140L498 139M635 139L636 140L635 139z"/>
<path style="fill:#9f9f9f; stroke:none;" d="M755 139L755 145L756 145L755 139M1050 139L1051 140L1050 139z"/>
<path style="fill:#2d2d2d; stroke:none;" d="M1208 139L1209 140L1208 139M128 140L129 141L128 140z"/>
<path style="fill:#5e5e5e; stroke:none;" d="M346 140L347 141L346 140z"/>
<path style="fill:#2d2d2d; stroke:none;" d="M499 140L500 141L499 140M635 140L636 141L635 140M1051 140L1052 141L1051 140z"/>
<path style="fill:#9f9f9f; stroke:none;" d="M1207 140L1208 141L1207 140M499 141L500 142L499 141M1051 141L1052 142L1051 141z"/>
<path style="fill:#5e5e5e; stroke:none;" d="M1207 141L1208 142L1207 141z"/>
<path style="fill:#9f9f9f; stroke:none;" d="M127.333 142.667L127.667 143.333L127.333 142.667z"/>
<path style="fill:#5e5e5e; stroke:none;" d="M347 142L348 143L347 142M500 142L501 143L500 142z"/>
<path style="fill:#9f9f9f; stroke:none;" d="M634.333 142.667L634.667 143.333L634.333 142.667z"/>
<path style="fill:#2d2d2d; stroke:none;" d="M686 142L687 143L686 142z"/>
<path style="fill:#5e5e5e; stroke:none;" d="M1052 142L1053 143L1052 142M686 143L687 144L686 143z"/>
<path style="fill:#9f9f9f; stroke:none;" d="M1206 143L1207 144L1206 143z"/>
<path style="fill:#2d2d2d; stroke:none;" d="M127 144L128 145L127 144z"/>
<path style="fill:#9f9f9f; stroke:none;" d="M348 144L349 145L348 144M501 144L502 145L501 144z"/>
<path style="fill:#2d2d2d; stroke:none;" d="M634 144L635 145L634 144z"/>
<path style="fill:#9f9f9f; stroke:none;" d="M686 144L687 145L686 144M1053 144L1054 145L1053 144z"/>
<path style="fill:#5e5e5e; stroke:none;" d="M1206 144L1207 145L1206 144M349 145L350 146L349 145z"/>
<path style="fill:#9f9f9f; stroke:none;" d="M402 145L403 146L402 145z"/>
<path style="fill:#5e5e5e; stroke:none;" d="M502 145L503 146L502 145z"/>
<path style="fill:#9f9f9f; stroke:none;" d="M1054 145L1055 146L1054 145M126 146L127 147L126 146z"/>
<path style="fill:#5e5e5e; stroke:none;" d="M350 146L351 147L350 146M402 146L402 170L403 170L402 146z"/>
<path style="fill:#9f9f9f; stroke:none;" d="M633 146L634 147L633 146z"/>
<path style="fill:#5e5e5e; stroke:none;" d="M687 146L688 147L687 146M1055 146L1056 147L1055 146z"/>
<path style="fill:#9f9f9f; stroke:none;" d="M1205 146L1206 147L1205 146z"/>
<path style="fill:#5e5e5e; stroke:none;" d="M126 147L127 148L126 147M229 147L230 148L229 147M351 147L352 148L351 147z"/>
<path style="fill:#9f9f9f; stroke:none;" d="M503 147L504 148L503 147z"/>
<path style="fill:#2d2d2d; stroke:none;" d="M633 147L634 148L633 147z"/>
<path style="fill:#9f9f9f; stroke:none;" d="M687 147L688 148L687 147z"/>
<path style="fill:#5e5e5e; stroke:none;" d="M756 147L757 148L756 147z"/>
<path style="fill:#9f9f9f; stroke:none;" d="M1056 147L1057 148L1056 147M1117 147L1117 169L1118 169L1117 147z"/>
<path style="fill:#2d2d2d; stroke:none;" d="M1205 147L1206 148L1205 147z"/>
<path style="fill:#9f9f9f; stroke:none;" d="M229 148L230 149L229 148M352 148L353 149L352 148z"/>
<path style="fill:#5e5e5e; stroke:none;" d="M504 148L505 149L504 148z"/>
<path style="fill:#2d2d2d; stroke:none;" d="M688 148L689 149L688 148z"/>
<path style="fill:#9f9f9f; stroke:none;" d="M756 148L757 149L756 148M1057 148L1058 149L1057 148M53 149L53 150L57 150L53 149z"/>
<path style="fill:#5e5e5e; stroke:none;" d="M125 149L126 150L125 149z"/>
<path style="fill:#2d2d2d; stroke:none;" d="M230 149L231 150L230 149z"/>
<path style="fill:#9f9f9f; stroke:none;" d="M353 149L354 150L353 149z"/>
<path style="fill:#5e5e5e; stroke:none;" d="M632 149L633 150L632 149z"/>
<path style="fill:#2d2d2d; stroke:none;" d="M757 149L758 150L757 149z"/>
<path style="fill:#5e5e5e; stroke:none;" d="M1204 149L1205 150L1204 149z"/>
<path style="fill:#9f9f9f; stroke:none;" d="M505 150L506 151L505 150M689 150L690 151L689 150M124 151L125 152L124 151M231 151L232 152L231 151z"/>
<path style="fill:#5e5e5e; stroke:none;" d="M506 151L507 152L506 151z"/>
<path style="fill:#9f9f9f; stroke:none;" d="M631 151L632 152L631 151z"/>
<path style="fill:#2d2d2d; stroke:none;" d="M691 151L692 152L691 151z"/>
<path style="fill:#9f9f9f; stroke:none;" d="M758 151L759 152L758 151M1203 151L1204 152L1203 151M233 152L234 153L233 152M760 152L761 153L760 152z"/>
<path style="fill:#5e5e5e; stroke:none;" d="M1203 152L1204 153L1203 152M123 153L124 154L123 153z"/>
<path style="fill:#9f9f9f; stroke:none;" d="M507 153L508 154L507 153z"/>
<path style="fill:#5e5e5e; stroke:none;" d="M630 153L631 154L630 153z"/>
<path style="fill:#9f9f9f; stroke:none;" d="M122 154L123 155L122 154z"/>
<path style="fill:#2d2d2d; stroke:none;" d="M508 154L509 155L508 154z"/>
<path style="fill:#9f9f9f; stroke:none;" d="M629 154L630 155L629 154M1202 154L1203 155L1202 154z"/>
<path style="fill:#2d2d2d; stroke:none;" d="M122 155L123 156L122 155M629 155L630 156L629 155M717 155L717 174L718 174L717 155M1202 155L1203 156L1202 155z"/>
<path style="fill:#5e5e5e; stroke:none;" d="M121 156L122 157L121 156z"/>
<path style="fill:#9f9f9f; stroke:none;" d="M509 156L510 157L509 156z"/>
<path style="fill:#5e5e5e; stroke:none;" d="M628 156L629 157L628 156z"/>
<path style="fill:#9f9f9f; stroke:none;" d="M120 157L121 158L120 157z"/>
<path style="fill:#2d2d2d; stroke:none;" d="M510 157L511 158L510 157z"/>
<path style="fill:#9f9f9f; stroke:none;" d="M627 157L628 158L627 157M1201 157L1202 158L1201 157M119 158L120 159L119 158z"/>
<path style="fill:#2d2d2d; stroke:none;" d="M1201 158L1202 159L1201 158z"/>
<path style="fill:#9f9f9f; stroke:none;" d="M511 159L512 160L511 159z"/>
<path style="fill:#2d2d2d; stroke:none;" d="M626 159L627 160L626 159z"/>
<path style="fill:#9f9f9f; stroke:none;" d="M1200 159L1201 160L1200 159z"/>
<path style="fill:#2d2d2d; stroke:none;" d="M118 160L119 161L118 160M512 160L513 161L512 160M625 160L626 161L625 160z"/>
<path style="fill:#5e5e5e; stroke:none;" d="M1200 160L1201 161L1200 160z"/>
<path style="fill:#2d2d2d; stroke:none;" d="M117 161L118 162L117 161M624 161L625 162L624 161z"/>
<path style="fill:#9f9f9f; stroke:none;" d="M115 162L116 163L115 162M513 162L514 163L513 162z"/>
<path style="fill:#2d2d2d; stroke:none;" d="M623 162L624 163L623 162z"/>
<path style="fill:#9f9f9f; stroke:none;" d="M1199 162L1200 163L1199 162M114 163L115 164L114 163z"/>
<path style="fill:#2d2d2d; stroke:none;" d="M514 163L515 164L514 163M622 163L623 164L622 163z"/>
<path style="fill:#5e5e5e; stroke:none;" d="M1199 163L1200 164L1199 163M113 164L114 165L113 164z"/>
<path style="fill:#9f9f9f; stroke:none;" d="M259 164L260 165L259 164z"/>
<path style="fill:#2d2d2d; stroke:none;" d="M260 164L260 171L261 171L260 164z"/>
<path style="fill:#9f9f9f; stroke:none;" d="M514 164L515 165L514 164M620 164L621 165L620 164M786 164L787 165L786 164z"/>
<path style="fill:#2d2d2d; stroke:none;" d="M787 164L787 171L788 171L787 164z"/>
<path style="fill:#9f9f9f; stroke:none;" d="M1031.67 164.333L1032.33 164.667L1031.67 164.333M111 165L112 166L111 165z"/>
<path style="fill:#2d2d2d; stroke:none;" d="M112 165L113 166L112 165z"/>
<path style="fill:#9f9f9f; stroke:none;" d="M258 165L259 166L258 165z"/>
<path style="fill:#2d2d2d; stroke:none;" d="M326 165L327 166L326 165z"/>
<path style="fill:#9f9f9f; stroke:none;" d="M327 165L328 166L327 165z"/>
<path style="fill:#5e5e5e; stroke:none;" d="M515 165L516 166L515 165z"/>
<path style="fill:#9f9f9f; stroke:none;" d="M619 165L620 166L619 165M785 165L786 166L785 165M1033 165L1034 166L1033 165M1198 165L1199 166L1198 165M110 166L111 167L110 166M257 166L258 167L257 166z"/>
<path style="fill:#5e5e5e; stroke:none;" d="M328 166L329 167L328 166z"/>
<path style="fill:#2d2d2d; stroke:none;" d="M516 166L517 167L516 166z"/>
<path style="fill:#5e5e5e; stroke:none;" d="M618 166L619 167L618 166z"/>
<path style="fill:#9f9f9f; stroke:none;" d="M784 166L785 167L784 166z"/>
<path style="fill:#5e5e5e; stroke:none;" d="M1034 166L1035 167L1034 166z"/>
<path style="fill:#2d2d2d; stroke:none;" d="M1198 166L1199 167L1198 166z"/>
<path style="fill:#9f9f9f; stroke:none;" d="M108 167L109 168L108 167z"/>
<path style="fill:#2d2d2d; stroke:none;" d="M109 167L110 168L109 167z"/>
<path style="fill:#5e5e5e; stroke:none;" d="M256 167L257 168L256 167z"/>
<path style="fill:#2d2d2d; stroke:none;" d="M329 167L330 168L329 167z"/>
<path style="fill:#9f9f9f; stroke:none;" d="M516 167L517 168L516 167M616 167L617 168L616 167z"/>
<path style="fill:#5e5e5e; stroke:none;" d="M783 167L784 168L783 167z"/>
<path style="fill:#2d2d2d; stroke:none;" d="M1035 167L1036 168L1035 167z"/>
<path style="fill:#9f9f9f; stroke:none;" d="M1036 167L1037 168L1036 167M106 168L107 169L106 168z"/>
<path style="fill:#2d2d2d; stroke:none;" d="M107 168L108 169L107 168M255 168L256 169L255 168z"/>
<path style="fill:#9f9f9f; stroke:none;" d="M331 168L332 169L331 168z"/>
<path style="fill:#5e5e5e; stroke:none;" d="M517 168L518 169L517 168M615 168L616 169L615 168z"/>
<path style="fill:#2d2d2d; stroke:none;" d="M782 168L783 169L782 168z"/>
<path style="fill:#5e5e5e; stroke:none;" d="M1037 168L1038 169L1037 168z"/>
<path style="fill:#9f9f9f; stroke:none;" d="M1197 168L1198 169L1197 168M104 169L105 170L104 169z"/>
<path style="fill:#5e5e5e; stroke:none;" d="M105 169L106 170L105 169z"/>
<path style="fill:#9f9f9f; stroke:none;" d="M253 169L254 170L253 169z"/>
<path style="fill:#2d2d2d; stroke:none;" d="M254 169L255 170L254 169M332 169L333 170L332 169z"/>
<path style="fill:#9f9f9f; stroke:none;" d="M333 169L334 170L333 169z"/>
<path style="fill:#2d2d2d; stroke:none;" d="M518 169L519 170L518 169z"/>
<path style="fill:#5e5e5e; stroke:none;" d="M530 169L531 170L530 169z"/>
<path style="fill:#9f9f9f; stroke:none;" d="M531 169L532 170L531 169M613 169L614 170L613 169M780 169L781 170L780 169z"/>
<path style="fill:#2d2d2d; stroke:none;" d="M781 169L782 170L781 169z"/>
<path style="fill:#9f9f9f; stroke:none;" d="M1039 169L1040 170L1039 169z"/>
<path style="fill:#5e5e5e; stroke:none;" d="M1117 169L1118 170L1117 169z"/>
<path style="fill:#2d2d2d; stroke:none;" d="M1197 169L1198 170L1197 169z"/>
<path style="fill:#9f9f9f; stroke:none;" d="M102 170L103 171L102 170z"/>
<path style="fill:#2d2d2d; stroke:none;" d="M103 170L104 171L103 170z"/>
<path style="fill:#9f9f9f; stroke:none;" d="M207 170L208 171L207 170z"/>
<path style="fill:#5e5e5e; stroke:none;" d="M252 170L253 171L252 170M334 170L335 171L334 170z"/>
<path style="fill:#9f9f9f; stroke:none;" d="M400 170L401 171L400 170z"/>
<path style="fill:#5e5e5e; stroke:none;" d="M401 170L402 171L401 170z"/>
<path style="fill:#9f9f9f; stroke:none;" d="M518 170L519 171L518 170z"/>
<path style="fill:#5e5e5e; stroke:none;" d="M533 170L534 171L533 170z"/>
<path style="fill:#9f9f9f; stroke:none;" d="M534 170L535 171L534 170M611 170L612 171L611 170z"/>
<path style="fill:#2d2d2d; stroke:none;" d="M612 170L613 171L612 170z"/>
<path style="fill:#9f9f9f; stroke:none;" d="M664 170L665 171L664 170M734 170L735 171L734 170z"/>
<path style="fill:#5e5e5e; stroke:none;" d="M779 170L780 171L779 170z"/>
<path style="fill:#2d2d2d; stroke:none;" d="M1040 170L1041 171L1040 170z"/>
<path style="fill:#9f9f9f; stroke:none;" d="M1041 170L1042 171L1041 170M1114 170L1115 171L1114 170z"/>
<path style="fill:#2d2d2d; stroke:none;" d="M1115 170L1116 171L1115 170z"/>
<path style="fill:#9f9f9f; stroke:none;" d="M1196 170L1197 171L1196 170M99 171L100 172L99 171z"/>
<path style="fill:#5e5e5e; stroke:none;" d="M100 171L101 172L100 171z"/>
<path style="fill:#9f9f9f; stroke:none;" d="M208 171L209 172L208 171M250 171L251 172L250 171z"/>
<path style="fill:#2d2d2d; stroke:none;" d="M251 171L252 172L251 171z"/>
<path style="fill:#5e5e5e; stroke:none;" d="M260 171L261 172L260 171M336 171L337 172L336 171z"/>
<path style="fill:#9f9f9f; stroke:none;" d="M398 171L399 172L398 171z"/>
<path style="fill:#2d2d2d; stroke:none;" d="M399 171L400 172L399 171z"/>
<path style="fill:#5e5e5e; stroke:none;" d="M519 171L520 172L519 171z"/>
<path style="fill:#2d2d2d; stroke:none;" d="M535 171L536 172L535 171z"/>
<path style="fill:#9f9f9f; stroke:none;" d="M536 171L537 172L536 171M609 171L610 172L609 171z"/>
<path style="fill:#2d2d2d; stroke:none;" d="M610 171L611 172L610 171M665 171L666 172L665 171z"/>
<path style="fill:#9f9f9f; stroke:none;" d="M666 171L667 172L666 171M735 171L736 172L735 171M777 171L778 172L777 171z"/>
<path style="fill:#2d2d2d; stroke:none;" d="M778 171L779 172L778 171z"/>
<path style="fill:#5e5e5e; stroke:none;" d="M787 171L788 172L787 171z"/>
<path style="fill:#2d2d2d; stroke:none;" d="M1042 171L1043 172L1042 171z"/>
<path style="fill:#9f9f9f; stroke:none;" d="M1043 171L1044 172L1043 171M1112 171L1113 172L1112 171z"/>
<path style="fill:#5e5e5e; stroke:none;" d="M1196 171L1197 172L1196 171z"/>
<path style="fill:#9f9f9f; stroke:none;" d="M96 172L97 173L96 172z"/>
<path style="fill:#5e5e5e; stroke:none;" d="M97 172L98 173L97 172z"/>
<path style="fill:#2d2d2d; stroke:none;" d="M209 172L210 173L209 172z"/>
<path style="fill:#9f9f9f; stroke:none;" d="M210 172L211 173L210 172M248 172L249 173L248 172z"/>
<path style="fill:#5e5e5e; stroke:none;" d="M249 172L250 173L249 172M338 172L339 173L338 172M396 172L397 173L396 172z"/>
<path style="fill:#2d2d2d; stroke:none;" d="M520 172L521 173L520 172M538 172L539 173L538 172z"/>
<path style="fill:#9f9f9f; stroke:none;" d="M539 172L540 173L539 172M607 172L608 173L607 172z"/>
<path style="fill:#5e5e5e; stroke:none;" d="M667 172L668 173L667 172z"/>
<path style="fill:#2d2d2d; stroke:none;" d="M736 172L737 173L736 172z"/>
<path style="fill:#9f9f9f; stroke:none;" d="M737 172L738 173L737 172M775 172L776 173L775 172z"/>
<path style="fill:#5e5e5e; stroke:none;" d="M776 172L777 173L776 172z"/>
<path style="fill:#2d2d2d; stroke:none;" d="M1044 172L1045 173L1044 172z"/>
<path style="fill:#9f9f9f; stroke:none;" d="M1045 172L1046 173L1045 172M1109 172L1110 173L1109 172z"/>
<path style="fill:#5e5e5e; stroke:none;" d="M1110 172L1111 173L1110 172z"/>
<path style="fill:#9f9f9f; stroke:none;" d="M91.6667 173.333L92.3333 173.667L91.6667 173.333z"/>
<path style="fill:#5e5e5e; stroke:none;" d="M93 173L94 174L93 173z"/>
<path style="fill:#2d2d2d; stroke:none;" d="M94 173L95 174L94 173z"/>
<path style="fill:#5e5e5e; stroke:none;" d="M211 173L212 174L211 173z"/>
<path style="fill:#9f9f9f; stroke:none;" d="M246 173L247 174L246 173z"/>
<path style="fill:#5e5e5e; stroke:none;" d="M247 173L248 174L247 173z"/>
<path style="fill:#2d2d2d; stroke:none;" d="M340 173L341 174L340 173z"/>
<path style="fill:#9f9f9f; stroke:none;" d="M341 173L342 174L341 173M393 173L394 174L393 173z"/>
<path style="fill:#2d2d2d; stroke:none;" d="M394 173L395 174L394 173z"/>
<path style="fill:#9f9f9f; stroke:none;" d="M520 173L521 174L520 173z"/>
<path style="fill:#2d2d2d; stroke:none;" d="M541 173L542 174L541 173z"/>
<path style="fill:#5e5e5e; stroke:none;" d="M542 173L543 174L542 173z"/>
<path style="fill:#9f9f9f; stroke:none;" d="M543 173L544 174L543 173M604 173L605 174L604 173z"/>
<path style="fill:#5e5e5e; stroke:none;" d="M605 173L606 174L605 173M669 173L670 174L669 173z"/>
<path style="fill:#9f9f9f; stroke:none;" d="M670 173L671 174L670 173z"/>
<path style="fill:#5e5e5e; stroke:none;" d="M738 173L739 174L738 173z"/>
<path style="fill:#9f9f9f; stroke:none;" d="M773 173L774 174L773 173z"/>
<path style="fill:#5e5e5e; stroke:none;" d="M774 173L775 174L774 173M1047 173L1048 174L1047 173z"/>
<path style="fill:#9f9f9f; stroke:none;" d="M1048 173L1049 174L1048 173M1106 173L1107 174L1106 173z"/>
<path style="fill:#5e5e5e; stroke:none;" d="M1107 173L1108 174L1107 173z"/>
<path style="fill:#9f9f9f; stroke:none;" d="M1195 173L1196 174L1195 173M82 174L82 175L86 175L82 174z"/>
<path style="fill:#5e5e5e; stroke:none;" d="M86.6667 174.333L87.3333 174.667L86.6667 174.333z"/>
<path style="fill:#2d2d2d; stroke:none;" d="M88 174L89 175L88 174z"/>
<path style="fill:#9f9f9f; stroke:none;" d="M213 174L214 175L213 174M244 174L245 175L244 174z"/>
<path style="fill:#2d2d2d; stroke:none;" d="M245 174L246 175L245 174z"/>
<path style="fill:#9f9f9f; stroke:none;" d="M265 174L265 175L293 175L265 174z"/>
<path style="fill:#5e5e5e; stroke:none;" d="M343 174L344 175L343 174z"/>
<path style="fill:#9f9f9f; stroke:none;" d="M344 174L345 175L344 174M390 174L391 175L390 174z"/>
<path style="fill:#5e5e5e; stroke:none;" d="M391 174L392 175L391 174M521 174L522 175L521 174M545 174L546 175L545 174z"/>
<path style="fill:#9f9f9f; stroke:none;" d="M546 174L547 175L546 174M601 174L602 175L601 174z"/>
<path style="fill:#5e5e5e; stroke:none;" d="M602 174L603 175L602 174z"/>
<path style="fill:#2d2d2d; stroke:none;" d="M671 174L672 175L671 174z"/>
<path style="fill:#5e5e5e; stroke:none;" d="M672 174L673 175L672 174z"/>
<path style="fill:#9f9f9f; stroke:none;" d="M673 174L674 175L673 174M714 174L715 175L714 174z"/>
<path style="fill:#5e5e5e; stroke:none;" d="M715 174L716 175L715 174z"/>
<path style="fill:#2d2d2d; stroke:none;" d="M716 174L717 175L716 174z"/>
<path style="fill:#9f9f9f; stroke:none;" d="M740 174L741 175L740 174M771 174L772 175L771 174z"/>
<path style="fill:#2d2d2d; stroke:none;" d="M772 174L773 175L772 174z"/>
<path style="fill:#9f9f9f; stroke:none;" d="M792 174L792 175L820 175L792 174z"/>
<path style="fill:#5e5e5e; stroke:none;" d="M1050 174L1051 175L1050 174z"/>
<path style="fill:#9f9f9f; stroke:none;" d="M1051 174L1052 175L1051 174M1102.67 174.333L1103.33 174.667L1102.67 174.333z"/>
<path style="fill:#2d2d2d; stroke:none;" d="M1104 174L1105 175L1104 174M1195 174L1196 175L1195 174M150 175L150 176L179 176L150 175z"/>
<path style="fill:#5e5e5e; stroke:none;" d="M215 175L216 176L215 175z"/>
<path style="fill:#9f9f9f; stroke:none;" d="M216 175L217 176L216 175M241 175L242 176L241 175z"/>
<path style="fill:#5e5e5e; stroke:none;" d="M242 175L243 176L242 175z"/>
<path style="fill:#2d2d2d; stroke:none;" d="M346 175L347 176L346 175z"/>
<path style="fill:#5e5e5e; stroke:none;" d="M347 175L348 176L347 175z"/>
<path style="fill:#9f9f9f; stroke:none;" d="M348 175L349 176L348 175M387 175L388 176L387 175z"/>
<path style="fill:#5e5e5e; stroke:none;" d="M388 175L389 176L388 175z"/>
<path style="fill:#2d2d2d; stroke:none;" d="M421 175L421 176L450 176L421 175z"/>
<path style="fill:#9f9f9f; stroke:none;" d="M484 175L485 176L484 175z"/>
<path style="fill:#2d2d2d; stroke:none;" d="M485 175L485 176L522 176C512.202 171.889 495.649 175 485 175z"/>
<path style="fill:#5e5e5e; stroke:none;" d="M549 175L550 176L549 175z"/>
<path style="fill:#9f9f9f; stroke:none;" d="M550.667 175.333L551.333 175.667L550.667 175.333M597 175L598 176L597 175z"/>
<path style="fill:#5e5e5e; stroke:none;" d="M598 175L599 176L598 175z"/>
<path style="fill:#2d2d2d; stroke:none;" d="M599 175L600 176L599 175z"/>
<path style="fill:#5e5e5e; stroke:none;" d="M675 175L676 176L675 175z"/>
<path style="fill:#9f9f9f; stroke:none;" d="M676.667 175.333L677.333 175.667L676.667 175.333M709.667 175.333L710.333 175.667L709.667 175.333z"/>
<path style="fill:#5e5e5e; stroke:none;" d="M711 175L712 176L711 175z"/>
<path style="fill:#2d2d2d; stroke:none;" d="M712 175L713 176L712 175z"/>
<path style="fill:#5e5e5e; stroke:none;" d="M742 175L743 176L742 175z"/>
<path style="fill:#9f9f9f; stroke:none;" d="M743 175L744 176L743 175M768 175L769 176L768 175z"/>
<path style="fill:#5e5e5e; stroke:none;" d="M769 175L770 176L769 175z"/>
<path style="fill:#2d2d2d; stroke:none;" d="M970 175L970 176L999 176L970 175M1053 175L1054 176L1053 175z"/>
<path style="fill:#9f9f9f; stroke:none;" d="M1054.67 175.333L1055.33 175.667L1054.67 175.333M1098.67 175.333L1099.33 175.667L1098.67 175.333z"/>
<path style="fill:#5e5e5e; stroke:none;" d="M1100 175L1101 176L1100 175M218 176L219 177L218 176z"/>
<path style="fill:#9f9f9f; stroke:none;" d="M219 176L220 177L219 176M238 176L239 177L238 176z"/>
<path style="fill:#5e5e5e; stroke:none;" d="M239 176L240 177L239 176z"/>
<path style="fill:#2d2d2d; stroke:none;" d="M350 176L351 177L350 176z"/>
<path style="fill:#5e5e5e; stroke:none;" d="M351 176L352 177L351 176z"/>
<path style="fill:#9f9f9f; stroke:none;" d="M352.667 176.333L353.333 176.667L352.667 176.333M382.667 176.333L383.333 176.667L382.667 176.333z"/>
<path style="fill:#5e5e5e; stroke:none;" d="M384 176L385 177L384 176z"/>
<path style="fill:#2d2d2d; stroke:none;" d="M553 176L554 177L553 176z"/>
<path style="fill:#5e5e5e; stroke:none;" d="M554 176L555 177L554 176z"/>
<path style="fill:#9f9f9f; stroke:none;" d="M555 176L555 177L558 177L555 176M592.667 176.333L593.333 176.667L592.667 176.333z"/>
<path style="fill:#5e5e5e; stroke:none;" d="M594 176L595 177L594 176z"/>
<path style="fill:#2d2d2d; stroke:none;" d="M595 176L596 177L595 176M679 176L680 177L679 176z"/>
<path style="fill:#5e5e5e; stroke:none;" d="M680.667 176.333L681.333 176.667L680.667 176.333z"/>
<path style="fill:#9f9f9f; stroke:none;" d="M682 176L682 177L685 177L682 176M700 176L700 177L704 177L700 176z"/>
<path style="fill:#5e5e5e; stroke:none;" d="M704.667 176.333L705.333 176.667L704.667 176.333z"/>
<path style="fill:#2d2d2d; stroke:none;" d="M706 176L707 177L706 176z"/>
<path style="fill:#5e5e5e; stroke:none;" d="M745 176L746 177L745 176z"/>
<path style="fill:#9f9f9f; stroke:none;" d="M746 176L747 177L746 176M765 176L766 177L765 176z"/>
<path style="fill:#5e5e5e; stroke:none;" d="M766 176L767 177L766 176z"/>
<path style="fill:#2d2d2d; stroke:none;" d="M1057 176L1058 177L1057 176z"/>
<path style="fill:#5e5e5e; stroke:none;" d="M1058 176L1059 177L1058 176z"/>
<path style="fill:#9f9f9f; stroke:none;" d="M1059.67 176.333L1060.33 176.667L1059.67 176.333M1093.67 176.333L1094.33 176.667L1093.67 176.333z"/>
<path style="fill:#5e5e5e; stroke:none;" d="M1095 176L1096 177L1095 176z"/>
<path style="fill:#2d2d2d; stroke:none;" d="M1096 176L1097 177L1096 176z"/>
<path style="fill:#9f9f9f; stroke:none;" d="M1194 176L1195 177L1194 176z"/>
<path style="fill:#2d2d2d; stroke:none;" d="M222 177L223 178L222 177z"/>
<path style="fill:#5e5e5e; stroke:none;" d="M223.667 177.333L224.333 177.667L223.667 177.333z"/>
<path style="fill:#9f9f9f; stroke:none;" d="M225 177L225 178L232 178L225 177z"/>
<path style="fill:#5e5e5e; stroke:none;" d="M232.667 177.333L233.333 177.667L232.667 177.333z"/>
<path style="fill:#2d2d2d; stroke:none;" d="M234.667 177.333L235.333 177.667L234.667 177.333z"/>
<path style="fill:#5e5e5e; stroke:none;" d="M356.667 177.333L357.333 177.667L356.667 177.333z"/>
<path style="fill:#9f9f9f; stroke:none;" d="M358 177L358 178L362 178L358 177M376 177L376 178L379 178L376 177z"/>
<path style="fill:#5e5e5e; stroke:none;" d="M379 177L380 178L379 177z"/>
<path style="fill:#2d2d2d; stroke:none;" d="M380 177L381 178L380 177M560 177L561 178L560 177z"/>
<path style="fill:#5e5e5e; stroke:none;" d="M561.667 177.333L562.333 177.667L561.667 177.333z"/>
<path style="fill:#9f9f9f; stroke:none;" d="M563 177L563 178L568 178L563 177M583 177L583 178L587 178L583 177z"/>
<path style="fill:#5e5e5e; stroke:none;" d="M587.667 177.333L588.333 177.667L587.667 177.333z"/>
<path style="fill:#2d2d2d; stroke:none;" d="M589 177L590 178L589 177M749 177L750 178L749 177z"/>
<path style="fill:#5e5e5e; stroke:none;" d="M750.667 177.333L751.333 177.667L750.667 177.333z"/>
<path style="fill:#9f9f9f; stroke:none;" d="M752 177L752 178L759 178L752 177z"/>
<path style="fill:#5e5e5e; stroke:none;" d="M759.667 177.333L760.333 177.667L759.667 177.333z"/>
<path style="fill:#2d2d2d; stroke:none;" d="M761.667 177.333L762.333 177.667L761.667 177.333M1063 177L1064 178L1063 177z"/>
<path style="fill:#5e5e5e; stroke:none;" d="M1064.67 177.333L1065.33 177.667L1064.67 177.333z"/>
<path style="fill:#9f9f9f; stroke:none;" d="M1066 177L1066 178L1069 178L1066 177M1085 177L1085 178L1089 178L1085 177z"/>
<path style="fill:#5e5e5e; stroke:none;" d="M1089 177L1090 178L1089 177z"/>
<path style="fill:#2d2d2d; stroke:none;" d="M1090 177L1091 178L1090 177M1194 177L1195 178L1194 177z"/>
<path style="fill:#9f9f9f; stroke:none;" d="M1193 178L1194 179L1193 178z"/>
<path style="fill:#5e5e5e; stroke:none;" d="M1193 179L1194 180L1193 179z"/>
<path style="fill:#9f9f9f; stroke:none;" d="M1192 181L1193 182L1192 181z"/>
<path style="fill:#5e5e5e; stroke:none;" d="M1192 182L1193 183L1192 182z"/>
<path style="fill:#9f9f9f; stroke:none;" d="M1191 184L1192 185L1191 184z"/>
<path style="fill:#2d2d2d; stroke:none;" d="M1191 185L1192 186L1191 185z"/>
<path style="fill:#9f9f9f; stroke:none;" d="M1190 187L1191 188L1190 187z"/>
<path style="fill:#2d2d2d; stroke:none;" d="M1190 188L1191 189L1190 188z"/>
<path style="fill:#9f9f9f; stroke:none;" d="M1189 189L1190 190L1189 189z"/>
<path style="fill:#5e5e5e; stroke:none;" d="M1189 190L1190 191L1189 190z"/>
<path style="fill:#9f9f9f; stroke:none;" d="M1188 192L1189 193L1188 192z"/>
<path style="fill:#5e5e5e; stroke:none;" d="M1188 193L1189 194L1188 193z"/>
<path style="fill:#9f9f9f; stroke:none;" d="M1187 195L1188 196L1187 195z"/>
<path style="fill:#2d2d2d; stroke:none;" d="M1187 196L1188 197L1187 196z"/>
<path style="fill:#5e5e5e; stroke:none;" d="M1186 198L1187 199L1186 198z"/>
<path style="fill:#9f9f9f; stroke:none;" d="M1185 200L1186 201L1185 200z"/>
<path style="fill:#5e5e5e; stroke:none;" d="M1185 201L1186 202L1185 201z"/>
<path style="fill:#9f9f9f; stroke:none;" d="M1184 203L1185 204L1184 203z"/>
<path style="fill:#2d2d2d; stroke:none;" d="M1184 204L1185 205L1184 204z"/>
<path style="fill:#9f9f9f; stroke:none;" d="M1183 206L1184 207L1183 206z"/>
<path style="fill:#2d2d2d; stroke:none;" d="M1183 207L1184 208L1183 207z"/>
<path style="fill:#9f9f9f; stroke:none;" d="M1182 208L1183 209L1182 208z"/>
<path style="fill:#5e5e5e; stroke:none;" d="M1182 209L1183 210L1182 209z"/>
<path style="fill:#9f9f9f; stroke:none;" d="M1181 211L1182 212L1181 211z"/>
<path style="fill:#5e5e5e; stroke:none;" d="M1181 212L1182 213L1181 212z"/>
</svg>
